%TF.GenerationSoftware,KiCad,Pcbnew,9.0.6*%
%TF.CreationDate,2026-03-23T19:36:02-05:00*%
%TF.ProjectId,ducktape,6475636b-7461-4706-952e-6b696361645f,rev?*%
%TF.SameCoordinates,Original*%
%TF.FileFunction,Copper,L1,Top*%
%TF.FilePolarity,Positive*%
%FSLAX46Y46*%
G04 Gerber Fmt 4.6, Leading zero omitted, Abs format (unit mm)*
G04 Created by KiCad (PCBNEW 9.0.6) date 2026-03-23 19:36:02*
%MOMM*%
%LPD*%
G01*
G04 APERTURE LIST*
G04 Aperture macros list*
%AMRoundRect*
0 Rectangle with rounded corners*
0 $1 Rounding radius*
0 $2 $3 $4 $5 $6 $7 $8 $9 X,Y pos of 4 corners*
0 Add a 4 corners polygon primitive as box body*
4,1,4,$2,$3,$4,$5,$6,$7,$8,$9,$2,$3,0*
0 Add four circle primitives for the rounded corners*
1,1,$1+$1,$2,$3*
1,1,$1+$1,$4,$5*
1,1,$1+$1,$6,$7*
1,1,$1+$1,$8,$9*
0 Add four rect primitives between the rounded corners*
20,1,$1+$1,$2,$3,$4,$5,0*
20,1,$1+$1,$4,$5,$6,$7,0*
20,1,$1+$1,$6,$7,$8,$9,0*
20,1,$1+$1,$8,$9,$2,$3,0*%
%AMOutline5P*
0 Free polygon, 5 corners , with rotation*
0 The origin of the aperture is its center*
0 number of corners: always 5*
0 $1 to $10 corner X, Y*
0 $11 Rotation angle, in degrees counterclockwise*
0 create outline with 5 corners*
4,1,5,$1,$2,$3,$4,$5,$6,$7,$8,$9,$10,$1,$2,$11*%
%AMOutline6P*
0 Free polygon, 6 corners , with rotation*
0 The origin of the aperture is its center*
0 number of corners: always 6*
0 $1 to $12 corner X, Y*
0 $13 Rotation angle, in degrees counterclockwise*
0 create outline with 6 corners*
4,1,6,$1,$2,$3,$4,$5,$6,$7,$8,$9,$10,$11,$12,$1,$2,$13*%
%AMOutline7P*
0 Free polygon, 7 corners , with rotation*
0 The origin of the aperture is its center*
0 number of corners: always 7*
0 $1 to $14 corner X, Y*
0 $15 Rotation angle, in degrees counterclockwise*
0 create outline with 7 corners*
4,1,7,$1,$2,$3,$4,$5,$6,$7,$8,$9,$10,$11,$12,$13,$14,$1,$2,$15*%
%AMOutline8P*
0 Free polygon, 8 corners , with rotation*
0 The origin of the aperture is its center*
0 number of corners: always 8*
0 $1 to $16 corner X, Y*
0 $17 Rotation angle, in degrees counterclockwise*
0 create outline with 8 corners*
4,1,8,$1,$2,$3,$4,$5,$6,$7,$8,$9,$10,$11,$12,$13,$14,$15,$16,$1,$2,$17*%
G04 Aperture macros list end*
%TA.AperFunction,SMDPad,CuDef*%
%ADD10RoundRect,0.140000X0.170000X-0.140000X0.170000X0.140000X-0.170000X0.140000X-0.170000X-0.140000X0*%
%TD*%
%TA.AperFunction,SMDPad,CuDef*%
%ADD11RoundRect,0.140000X0.140000X0.170000X-0.140000X0.170000X-0.140000X-0.170000X0.140000X-0.170000X0*%
%TD*%
%TA.AperFunction,SMDPad,CuDef*%
%ADD12RoundRect,0.140000X-0.170000X0.140000X-0.170000X-0.140000X0.170000X-0.140000X0.170000X0.140000X0*%
%TD*%
%TA.AperFunction,ComponentPad*%
%ADD13C,1.700000*%
%TD*%
%TA.AperFunction,ComponentPad*%
%ADD14R,1.700000X1.700000*%
%TD*%
%TA.AperFunction,HeatsinkPad*%
%ADD15O,3.500000X1.900000*%
%TD*%
%TA.AperFunction,SMDPad,CuDef*%
%ADD16R,2.500000X1.100000*%
%TD*%
%TA.AperFunction,HeatsinkPad*%
%ADD17O,1.600000X1.000000*%
%TD*%
%TA.AperFunction,HeatsinkPad*%
%ADD18O,2.100000X1.000000*%
%TD*%
%TA.AperFunction,SMDPad,CuDef*%
%ADD19R,1.450000X0.600000*%
%TD*%
%TA.AperFunction,SMDPad,CuDef*%
%ADD20R,1.450000X0.300000*%
%TD*%
%TA.AperFunction,SMDPad,CuDef*%
%ADD21RoundRect,0.135000X-0.185000X0.135000X-0.185000X-0.135000X0.185000X-0.135000X0.185000X0.135000X0*%
%TD*%
%TA.AperFunction,SMDPad,CuDef*%
%ADD22RoundRect,0.145000X-0.660000X-0.145000X0.660000X-0.145000X0.660000X0.145000X-0.660000X0.145000X0*%
%TD*%
%TA.AperFunction,SMDPad,CuDef*%
%ADD23RoundRect,0.081250X0.528750X0.243750X-0.528750X0.243750X-0.528750X-0.243750X0.528750X-0.243750X0*%
%TD*%
%TA.AperFunction,SMDPad,CuDef*%
%ADD24R,0.800000X0.800000*%
%TD*%
%TA.AperFunction,HeatsinkPad*%
%ADD25R,1.200000X1.200000*%
%TD*%
%TA.AperFunction,HeatsinkPad*%
%ADD26Outline5P,-0.600000X0.204000X-0.204000X0.600000X0.600000X0.600000X0.600000X-0.600000X-0.600000X-0.600000X180.000000*%
%TD*%
%TA.AperFunction,SMDPad,CuDef*%
%ADD27R,0.400000X0.800000*%
%TD*%
%TA.AperFunction,SMDPad,CuDef*%
%ADD28R,0.800000X0.400000*%
%TD*%
%TA.AperFunction,SMDPad,CuDef*%
%ADD29R,0.700000X0.700000*%
%TD*%
%TA.AperFunction,SMDPad,CuDef*%
%ADD30R,0.650000X1.050000*%
%TD*%
%TA.AperFunction,SMDPad,CuDef*%
%ADD31RoundRect,0.140000X-0.140000X-0.170000X0.140000X-0.170000X0.140000X0.170000X-0.140000X0.170000X0*%
%TD*%
%TA.AperFunction,SMDPad,CuDef*%
%ADD32RoundRect,0.135000X0.135000X0.185000X-0.135000X0.185000X-0.135000X-0.185000X0.135000X-0.185000X0*%
%TD*%
%TA.AperFunction,ViaPad*%
%ADD33C,0.600000*%
%TD*%
%TA.AperFunction,Conductor*%
%ADD34C,0.200000*%
%TD*%
G04 APERTURE END LIST*
D10*
%TO.P,C1,2*%
%TO.N,+3V3*%
X115500000Y-57020000D03*
%TO.P,C1,1*%
%TO.N,GND*%
X115500000Y-57980000D03*
%TD*%
D11*
%TO.P,C3,2*%
%TO.N,+3V3*%
X155520000Y-66000000D03*
%TO.P,C3,1*%
%TO.N,GND*%
X156480000Y-66000000D03*
%TD*%
%TO.P,C4,2*%
%TO.N,+3V3*%
X155520000Y-63780000D03*
%TO.P,C4,1*%
%TO.N,GND*%
X156480000Y-63780000D03*
%TD*%
D12*
%TO.P,C6,2*%
%TO.N,GND*%
X125000000Y-59980000D03*
%TO.P,C6,1*%
%TO.N,+3V3*%
X125000000Y-59020000D03*
%TD*%
D13*
%TO.P,J1,4,Pin_4*%
%TO.N,/DISP_SDA*%
X134320000Y-52000000D03*
%TO.P,J1,3,Pin_3*%
%TO.N,/DISP_SCL*%
X131780000Y-52000000D03*
%TO.P,J1,2,Pin_2*%
%TO.N,+3V3*%
X129240000Y-52000000D03*
D14*
%TO.P,J1,1,Pin_1*%
%TO.N,GND*%
X126700000Y-52000000D03*
%TD*%
D15*
%TO.P,J2,5,Shield*%
%TO.N,GND*%
X161600000Y-64700000D03*
X161600000Y-53300000D03*
D16*
%TO.P,J2,4,GND*%
X158850000Y-62500000D03*
%TO.P,J2,3,D+*%
%TO.N,/USB_DP*%
X158850000Y-60000000D03*
%TO.P,J2,2,D-*%
%TO.N,/USB_DM*%
X158850000Y-58000000D03*
%TO.P,J2,1,VBUS*%
%TO.N,+5V*%
X158850000Y-55500000D03*
%TD*%
D17*
%TO.P,J3,S1,SHIELD*%
%TO.N,GND*%
X101950000Y-63320000D03*
D18*
X106130000Y-63320000D03*
D17*
X101950000Y-54680000D03*
D18*
X106130000Y-54680000D03*
D19*
%TO.P,J3,B12,GND*%
X107045000Y-55750000D03*
%TO.P,J3,B9,VBUS*%
%TO.N,+5V*%
X107045000Y-56550000D03*
D20*
%TO.P,J3,B8,SBU2*%
%TO.N,unconnected-(J3-SBU2-PadB8)*%
X107045000Y-57250000D03*
%TO.P,J3,B7,D-*%
%TO.N,/USB_DM*%
X107045000Y-58250000D03*
%TO.P,J3,B6,D+*%
%TO.N,/USB_DP*%
X107045000Y-59750000D03*
%TO.P,J3,B5,CC2*%
%TO.N,Net-(J3-CC2)*%
X107045000Y-60750000D03*
D19*
%TO.P,J3,B4,VBUS*%
%TO.N,+5V*%
X107045000Y-61450000D03*
%TO.P,J3,B1,GND*%
%TO.N,GND*%
X107045000Y-62250000D03*
%TO.P,J3,A12,GND*%
X107045000Y-62250000D03*
%TO.P,J3,A9,VBUS*%
%TO.N,+5V*%
X107045000Y-61450000D03*
D20*
%TO.P,J3,A8,SBU1*%
%TO.N,unconnected-(J3-SBU1-PadA8)*%
X107045000Y-60250000D03*
%TO.P,J3,A7,D-*%
%TO.N,/USB_DM*%
X107045000Y-59250000D03*
%TO.P,J3,A6,D+*%
%TO.N,/USB_DP*%
X107045000Y-58750000D03*
%TO.P,J3,A5,CC1*%
%TO.N,Net-(J3-CC1)*%
X107045000Y-57750000D03*
D19*
%TO.P,J3,A4,VBUS*%
%TO.N,+5V*%
X107045000Y-56550000D03*
%TO.P,J3,A1,GND*%
%TO.N,GND*%
X107045000Y-55750000D03*
%TD*%
D21*
%TO.P,R1,2*%
%TO.N,Net-(U4-EN)*%
X135000000Y-64510000D03*
%TO.P,R1,1*%
%TO.N,+3V3*%
X135000000Y-63490000D03*
%TD*%
%TO.P,R2,2*%
%TO.N,Net-(U4-IO0)*%
X156000000Y-62510000D03*
%TO.P,R2,1*%
%TO.N,+3V3*%
X156000000Y-61490000D03*
%TD*%
D22*
%TO.P,U2,8,VCC*%
%TO.N,+3V3*%
X134105000Y-56095000D03*
%TO.P,U2,7,~{HOLD}/RESET(IO3)*%
X134105000Y-57365000D03*
%TO.P,U2,6,CLK*%
%TO.N,/FLASH_CLK*%
X134105000Y-58635000D03*
%TO.P,U2,5,DI(IO0)*%
%TO.N,/FLASH_MOSI*%
X134105000Y-59905000D03*
%TO.P,U2,4,GND*%
%TO.N,GND*%
X126895000Y-59905000D03*
%TO.P,U2,3,~{WP}(IO2)*%
%TO.N,+3V3*%
X126895000Y-58635000D03*
%TO.P,U2,2,DO(IO1)*%
%TO.N,/FLASH_MISO*%
X126895000Y-57365000D03*
%TO.P,U2,1,~{CS}*%
%TO.N,/FLASH_CS*%
X126895000Y-56095000D03*
%TD*%
D23*
%TO.P,U3,5,VOUT*%
%TO.N,+3V3*%
X117255000Y-56940000D03*
%TO.P,U3,4*%
%TO.N,N/C*%
X117255000Y-55060000D03*
%TO.P,U3,3,EN*%
%TO.N,+5V*%
X119745000Y-55060000D03*
%TO.P,U3,2,GND*%
%TO.N,GND*%
X119745000Y-56000000D03*
%TO.P,U3,1,VIN*%
%TO.N,+5V*%
X119745000Y-56940000D03*
%TD*%
D24*
%TO.P,U4,65,GND*%
%TO.N,GND*%
X138350000Y-66350000D03*
%TO.P,U4,64,GND*%
X138350000Y-52350000D03*
%TO.P,U4,63,GND*%
X152350000Y-52350000D03*
%TO.P,U4,62,GND*%
X152350000Y-66350000D03*
D25*
%TO.P,U4,61,GND*%
X143700000Y-57700000D03*
X143700000Y-59350000D03*
X143700000Y-61000000D03*
X145350000Y-57700000D03*
X145350000Y-59350000D03*
X145350000Y-61000000D03*
X147000000Y-57700000D03*
X147000000Y-59350000D03*
D26*
X147000000Y-61000000D03*
D27*
%TO.P,U4,60,GND*%
X151300000Y-66350000D03*
%TO.P,U4,59,GND*%
X150450000Y-66350000D03*
%TO.P,U4,58,GND*%
X149600000Y-66350000D03*
%TO.P,U4,57,GND*%
X148750000Y-66350000D03*
%TO.P,U4,56,GND*%
X147900000Y-66350000D03*
%TO.P,U4,55,GND*%
X147050000Y-66350000D03*
%TO.P,U4,54,GND*%
X146200000Y-66350000D03*
%TO.P,U4,53,GND*%
X145350000Y-66350000D03*
%TO.P,U4,52,GND*%
X144500000Y-66350000D03*
%TO.P,U4,51,GND*%
X143650000Y-66350000D03*
%TO.P,U4,50,GND*%
X142800000Y-66350000D03*
%TO.P,U4,49,GND*%
X141950000Y-66350000D03*
%TO.P,U4,48,GND*%
X141100000Y-66350000D03*
%TO.P,U4,47,GND*%
X140250000Y-66350000D03*
%TO.P,U4,46,GND*%
X139400000Y-66350000D03*
D28*
%TO.P,U4,45,EN*%
%TO.N,Net-(U4-EN)*%
X138350000Y-65300000D03*
%TO.P,U4,44,IO46*%
%TO.N,unconnected-(U4-IO46-Pad44)*%
X138350000Y-64450000D03*
%TO.P,U4,43,GND*%
%TO.N,GND*%
X138350000Y-63600000D03*
%TO.P,U4,42,GND*%
X138350000Y-62750000D03*
%TO.P,U4,41,IO45*%
%TO.N,unconnected-(U4-IO45-Pad41)*%
X138350000Y-61900000D03*
%TO.P,U4,40,RXD0*%
%TO.N,unconnected-(U4-RXD0-Pad40)*%
X138350000Y-61050000D03*
%TO.P,U4,39,TXD0*%
%TO.N,unconnected-(U4-TXD0-Pad39)*%
X138350000Y-60200000D03*
%TO.P,U4,38,IO42*%
%TO.N,unconnected-(U4-IO42-Pad38)*%
X138350000Y-59350000D03*
%TO.P,U4,37,IO41*%
%TO.N,unconnected-(U4-IO41-Pad37)*%
X138350000Y-58500000D03*
%TO.P,U4,36,IO40*%
%TO.N,unconnected-(U4-IO40-Pad36)*%
X138350000Y-57650000D03*
%TO.P,U4,35,IO39*%
%TO.N,unconnected-(U4-IO39-Pad35)*%
X138350000Y-56800000D03*
%TO.P,U4,34,IO38*%
%TO.N,unconnected-(U4-IO38-Pad34)*%
X138350000Y-55950000D03*
%TO.P,U4,33,IO37*%
%TO.N,unconnected-(U4-IO37-Pad33)*%
X138350000Y-55100000D03*
%TO.P,U4,32,IO36*%
%TO.N,unconnected-(U4-IO36-Pad32)*%
X138350000Y-54250000D03*
%TO.P,U4,31,IO35*%
%TO.N,unconnected-(U4-IO35-Pad31)*%
X138350000Y-53400000D03*
D27*
%TO.P,U4,30,IO48*%
%TO.N,/RGB_LED*%
X139400000Y-52350000D03*
%TO.P,U4,29,IO34*%
%TO.N,unconnected-(U4-IO34-Pad29)*%
X140250000Y-52350000D03*
%TO.P,U4,28,IO33*%
%TO.N,unconnected-(U4-IO33-Pad28)*%
X141100000Y-52350000D03*
%TO.P,U4,27,IO47*%
%TO.N,unconnected-(U4-IO47-Pad27)*%
X141950000Y-52350000D03*
%TO.P,U4,26,IO26*%
%TO.N,unconnected-(U4-IO26-Pad26)*%
X142800000Y-52350000D03*
%TO.P,U4,25,IO21*%
%TO.N,unconnected-(U4-IO21-Pad25)*%
X143650000Y-52350000D03*
%TO.P,U4,24,USB_D+*%
%TO.N,/USB_DP*%
X144500000Y-52350000D03*
%TO.P,U4,23,USB_D-*%
%TO.N,/USB_DM*%
X145350000Y-52350000D03*
%TO.P,U4,22,IO18*%
%TO.N,unconnected-(U4-IO18-Pad22)*%
X146200000Y-52350000D03*
%TO.P,U4,21,IO17*%
%TO.N,unconnected-(U4-IO17-Pad21)*%
X147050000Y-52350000D03*
%TO.P,U4,20,IO16*%
%TO.N,unconnected-(U4-IO16-Pad20)*%
X147900000Y-52350000D03*
%TO.P,U4,19,IO15*%
%TO.N,unconnected-(U4-IO15-Pad19)*%
X148750000Y-52350000D03*
%TO.P,U4,18,IO14*%
%TO.N,unconnected-(U4-IO14-Pad18)*%
X149600000Y-52350000D03*
%TO.P,U4,17,IO13*%
%TO.N,/FLASH_MISO*%
X150450000Y-52350000D03*
%TO.P,U4,16,IO12*%
%TO.N,/FLASH_CLK*%
X151300000Y-52350000D03*
D28*
%TO.P,U4,15,IO11*%
%TO.N,/FLASH_MOSI*%
X152350000Y-53400000D03*
%TO.P,U4,14,IO10*%
%TO.N,/FLASH_CS*%
X152350000Y-54250000D03*
%TO.P,U4,13,IO9*%
%TO.N,/DISP_SCL*%
X152350000Y-55100000D03*
%TO.P,U4,12,IO8*%
%TO.N,/DISP_SDA*%
X152350000Y-55950000D03*
%TO.P,U4,11,IO7*%
%TO.N,unconnected-(U4-IO7-Pad11)*%
X152350000Y-56800000D03*
%TO.P,U4,10,IO6*%
%TO.N,unconnected-(U4-IO6-Pad10)*%
X152350000Y-57650000D03*
%TO.P,U4,9,IO5*%
%TO.N,unconnected-(U4-IO5-Pad9)*%
X152350000Y-58500000D03*
%TO.P,U4,8,IO4*%
%TO.N,unconnected-(U4-IO4-Pad8)*%
X152350000Y-59350000D03*
%TO.P,U4,7,IO3*%
%TO.N,Net-(J4-Pin_1)*%
X152350000Y-60200000D03*
%TO.P,U4,6,IO2*%
%TO.N,unconnected-(U4-IO2-Pad6)*%
X152350000Y-61050000D03*
%TO.P,U4,5,IO1*%
%TO.N,unconnected-(U4-IO1-Pad5)*%
X152350000Y-61900000D03*
%TO.P,U4,4,IO0*%
%TO.N,Net-(U4-IO0)*%
X152350000Y-62750000D03*
%TO.P,U4,3,3V3*%
%TO.N,+3V3*%
X152350000Y-63600000D03*
%TO.P,U4,2,GND*%
%TO.N,GND*%
X152350000Y-64450000D03*
%TO.P,U4,1,GND*%
X152350000Y-65300000D03*
%TD*%
D29*
%TO.P,D1,1,DOUT*%
%TO.N,unconnected-(D1-DOUT-Pad1)*%
X109085000Y-61950000D03*
%TO.P,D1,2,VSS*%
%TO.N,GND*%
X109085000Y-63050000D03*
%TO.P,D1,3,DIN*%
%TO.N,Net-(D1-DIN)*%
X110915000Y-63050000D03*
%TO.P,D1,4,VDD*%
%TO.N,+3V3*%
X110915000Y-61950000D03*
%TD*%
D30*
%TO.P,S2,1*%
%TO.N,GND*%
X120675000Y-65575000D03*
%TO.P,S2,2*%
%TO.N,unconnected-(S2-Pad2)*%
X120675000Y-61425000D03*
%TO.P,S2,3*%
%TO.N,unconnected-(S2-Pad3)*%
X122825000Y-65575000D03*
%TO.P,S2,4*%
%TO.N,Net-(U4-EN)*%
X122825000Y-61425000D03*
%TD*%
D12*
%TO.P,C8,1*%
%TO.N,GND*%
X136500000Y-63520000D03*
%TO.P,C8,2*%
%TO.N,Net-(U4-EN)*%
X136500000Y-64480000D03*
%TD*%
%TO.P,C2,1*%
%TO.N,GND*%
X115500000Y-54520000D03*
%TO.P,C2,2*%
%TO.N,+5V*%
X115500000Y-55480000D03*
%TD*%
D30*
%TO.P,S1,1*%
%TO.N,GND*%
X115925000Y-65575000D03*
%TO.P,S1,2*%
%TO.N,unconnected-(S1-Pad2)*%
X115925000Y-61425000D03*
%TO.P,S1,3*%
%TO.N,unconnected-(S1-Pad3)*%
X118075000Y-65575000D03*
%TO.P,S1,4*%
%TO.N,Net-(U4-IO0)*%
X118075000Y-61425000D03*
%TD*%
D31*
%TO.P,C7,1*%
%TO.N,+3V3*%
X112020000Y-61500000D03*
%TO.P,C7,2*%
%TO.N,GND*%
X112980000Y-61500000D03*
%TD*%
D14*
%TO.P,J4,1,Pin_1*%
%TO.N,Net-(J4-Pin_1)*%
X128000000Y-64500000D03*
D13*
%TO.P,J4,2,Pin_2*%
%TO.N,GND*%
X130540000Y-64500000D03*
%TD*%
D32*
%TO.P,R3,1*%
%TO.N,Net-(J3-CC1)*%
X106010000Y-53000000D03*
%TO.P,R3,2*%
%TO.N,GND*%
X104990000Y-53000000D03*
%TD*%
%TO.P,R5,1*%
%TO.N,/RGB_LED*%
X114010000Y-64000000D03*
%TO.P,R5,2*%
%TO.N,Net-(D1-DIN)*%
X112990000Y-64000000D03*
%TD*%
%TO.P,R4,1*%
%TO.N,Net-(J3-CC2)*%
X104510000Y-65000000D03*
%TO.P,R4,2*%
%TO.N,GND*%
X103490000Y-65000000D03*
%TD*%
D33*
%TO.N,GND*%
X107045000Y-55750000D03*
X156480000Y-63780000D03*
X104990000Y-53000000D03*
X123000000Y-57000000D03*
X115500000Y-57980000D03*
X103490000Y-65000000D03*
X153311800Y-55000000D03*
X143700000Y-61000000D03*
X145350000Y-61000000D03*
X147000000Y-61000000D03*
X143700000Y-59350000D03*
X145350000Y-59350000D03*
X147000000Y-59350000D03*
X147000000Y-57700000D03*
X145350000Y-57700000D03*
X143700000Y-57700000D03*
X141000000Y-57000000D03*
X112500000Y-63000000D03*
X129500000Y-59500000D03*
X140000000Y-65000000D03*
%TO.N,Net-(U4-IO0)*%
X142375300Y-63293700D03*
X133092700Y-63696600D03*
%TO.N,/FLASH_CLK*%
X137406400Y-61300500D03*
X151596500Y-51364300D03*
%TO.N,/FLASH_MOSI*%
X145902500Y-53284700D03*
X136716500Y-60657700D03*
%TO.N,/FLASH_CS*%
X130337300Y-55019000D03*
X148687700Y-53763000D03*
%TO.N,/FLASH_MISO*%
X145531000Y-49846900D03*
X146517400Y-51250100D03*
%TO.N,/RGB_LED*%
X141913321Y-54707101D03*
X132012900Y-61215700D03*
%TO.N,Net-(J4-Pin_1)*%
X141213200Y-62531000D03*
%TO.N,/USB_DM*%
X153303800Y-60284500D03*
X144708600Y-53536900D03*
X146138900Y-49295400D03*
%TO.N,/USB_DP*%
X133266800Y-52993200D03*
X135725200Y-65160100D03*
%TO.N,/DISP_SDA*%
X142434313Y-54100000D03*
%TO.N,/DISP_SCL*%
X143000000Y-53500000D03*
%TO.N,+3V3*%
X140334100Y-62714000D03*
X137234800Y-62615600D03*
%TO.N,+5V*%
X126747100Y-54147400D03*
X129530200Y-50402000D03*
%TD*%
D34*
%TO.N,/USB_DP*%
X158500000Y-60000000D02*
X158850000Y-60000000D01*
X157299000Y-61649000D02*
X158500000Y-61649000D01*
X157500000Y-63351000D02*
X157299000Y-63351000D01*
X158500000Y-61649000D02*
X158500000Y-60000000D01*
X156380900Y-67076700D02*
X157500000Y-65957600D01*
X136376500Y-67076700D02*
X156380900Y-67076700D01*
X157299000Y-63351000D02*
X157299000Y-61649000D01*
X135725200Y-66425400D02*
X136376500Y-67076700D01*
X157500000Y-65957600D02*
X157500000Y-63351000D01*
%TO.N,Net-(J3-CC1)*%
X107045000Y-57750000D02*
X105939100Y-57750000D01*
X105939100Y-57750000D02*
X104500000Y-56310900D01*
X104500000Y-56310900D02*
X104500000Y-54510000D01*
X104500000Y-54510000D02*
X106010000Y-53000000D01*
%TO.N,/USB_DP*%
X106525800Y-69000000D02*
X133150600Y-69000000D01*
X102876200Y-65350400D02*
X106525800Y-69000000D01*
X102876200Y-64163300D02*
X102876200Y-65350400D01*
X103496900Y-62146500D02*
X103496900Y-63542600D01*
X105893400Y-59750000D02*
X103496900Y-62146500D01*
X106018300Y-59750000D02*
X105893400Y-59750000D01*
X103496900Y-63542600D02*
X102876200Y-64163300D01*
X133150600Y-69000000D02*
X135725200Y-66425400D01*
%TO.N,+3V3*%
X112020000Y-61693300D02*
X112020000Y-61500000D01*
X111415000Y-62298300D02*
X112020000Y-61693300D01*
X111263300Y-62298300D02*
X111415000Y-62298300D01*
X110915000Y-61950000D02*
X111263300Y-62298300D01*
%TO.N,Net-(D1-DIN)*%
X111915000Y-64050000D02*
X112066700Y-64050000D01*
X112066700Y-64050000D02*
X112116700Y-64000000D01*
X110915000Y-63050000D02*
X111915000Y-64050000D01*
X112116700Y-64000000D02*
X112990000Y-64000000D01*
%TO.N,GND*%
X153311800Y-53311800D02*
X153311800Y-55000000D01*
X152350000Y-52350000D02*
X153311800Y-53311800D01*
X141000000Y-55000000D02*
X141000000Y-57000000D01*
X140500000Y-54500000D02*
X141000000Y-55000000D01*
X138350000Y-52350000D02*
X140500000Y-54500000D01*
%TO.N,/RGB_LED*%
X141557101Y-54707101D02*
X141913321Y-54707101D01*
X139400000Y-52550000D02*
X141557101Y-54707101D01*
X139400000Y-52350000D02*
X139400000Y-52550000D01*
%TO.N,/DISP_SDA*%
X142434313Y-54100000D02*
X144284313Y-55950000D01*
X144284313Y-55950000D02*
X152350000Y-55950000D01*
%TO.N,/DISP_SCL*%
X143000000Y-53500000D02*
X144600000Y-55100000D01*
X144600000Y-55100000D02*
X152350000Y-55100000D01*
%TO.N,GND*%
X125075000Y-59905000D02*
X125000000Y-59980000D01*
X126895000Y-59905000D02*
X125075000Y-59905000D01*
%TO.N,Net-(U4-IO0)*%
X153291700Y-62510000D02*
X153051700Y-62750000D01*
X156000000Y-62510000D02*
X153291700Y-62510000D01*
X152700900Y-62750000D02*
X153051700Y-62750000D01*
X152700900Y-62750000D02*
X152350000Y-62750000D01*
X131646200Y-62251700D02*
X118075000Y-62251700D01*
X133092700Y-63698200D02*
X131646200Y-62251700D01*
X133092700Y-63696600D02*
X133092700Y-63698200D01*
X118075000Y-61425000D02*
X118075000Y-62251700D01*
X142919000Y-62750000D02*
X142375300Y-63293700D01*
X152350000Y-62750000D02*
X142919000Y-62750000D01*
%TO.N,/FLASH_CLK*%
X137406400Y-60490600D02*
X137406400Y-61300500D01*
X135550800Y-58635000D02*
X137406400Y-60490600D01*
X134105000Y-58635000D02*
X135550800Y-58635000D01*
X151312500Y-51648300D02*
X151300000Y-51648300D01*
X151596500Y-51364300D02*
X151312500Y-51648300D01*
X151300000Y-52350000D02*
X151300000Y-51648300D01*
%TO.N,/FLASH_MOSI*%
X134857700Y-60657700D02*
X134105000Y-59905000D01*
X136716500Y-60657700D02*
X134857700Y-60657700D01*
X146025900Y-53161300D02*
X145902500Y-53284700D01*
X151409600Y-53161300D02*
X146025900Y-53161300D01*
X151648300Y-53400000D02*
X151409600Y-53161300D01*
X152350000Y-53400000D02*
X151648300Y-53400000D01*
%TO.N,/FLASH_CS*%
X127971000Y-55019000D02*
X130337300Y-55019000D01*
X126895000Y-56095000D02*
X127971000Y-55019000D01*
X149174700Y-54250000D02*
X148687700Y-53763000D01*
X152350000Y-54250000D02*
X149174700Y-54250000D01*
%TO.N,/FLASH_MISO*%
X150051800Y-51250100D02*
X150450000Y-51648300D01*
X146517400Y-51250100D02*
X150051800Y-51250100D01*
X150450000Y-52350000D02*
X150450000Y-51648300D01*
X126650100Y-57365000D02*
X126895000Y-57365000D01*
X125784400Y-56499300D02*
X126650100Y-57365000D01*
X125784400Y-55724300D02*
X125784400Y-56499300D01*
X126759600Y-54749100D02*
X125784400Y-55724300D01*
X126996300Y-54749100D02*
X126759600Y-54749100D01*
X127970000Y-53775400D02*
X126996300Y-54749100D01*
X127970000Y-51111400D02*
X127970000Y-53775400D01*
X129281100Y-49800300D02*
X127970000Y-51111400D01*
X145484400Y-49800300D02*
X129281100Y-49800300D01*
X145531000Y-49846900D02*
X145484400Y-49800300D01*
%TO.N,/RGB_LED*%
X131395500Y-60598300D02*
X132012900Y-61215700D01*
X117581200Y-60598300D02*
X131395500Y-60598300D01*
X116551700Y-61627800D02*
X117581200Y-60598300D01*
X116551700Y-62095900D02*
X116551700Y-61627800D01*
X114647600Y-64000000D02*
X116551700Y-62095900D01*
X114010000Y-64000000D02*
X114647600Y-64000000D01*
%TO.N,Net-(J4-Pin_1)*%
X150749700Y-60200000D02*
X152350000Y-60200000D01*
X148683200Y-62266500D02*
X150749700Y-60200000D01*
X141477700Y-62266500D02*
X148683200Y-62266500D01*
X141213200Y-62531000D02*
X141477700Y-62266500D01*
%TO.N,Net-(J3-CC2)*%
X105496400Y-60750000D02*
X107045000Y-60750000D01*
X104510000Y-61736400D02*
X105496400Y-60750000D01*
X104510000Y-65000000D02*
X104510000Y-61736400D01*
%TO.N,/USB_DM*%
X108071700Y-58250000D02*
X108071700Y-59250000D01*
X107970900Y-59250000D02*
X108070200Y-59250000D01*
X108070200Y-59250000D02*
X108071700Y-59250000D01*
X155588300Y-58000000D02*
X153303800Y-60284500D01*
X158850000Y-58000000D02*
X155588300Y-58000000D01*
X107045000Y-58250000D02*
X108071700Y-58250000D01*
X145350000Y-52895500D02*
X144708600Y-53536900D01*
X145350000Y-52350000D02*
X145350000Y-52895500D01*
X107457500Y-59250000D02*
X107970900Y-59250000D01*
X107457500Y-59250000D02*
X107045000Y-59250000D01*
X105832300Y-58250000D02*
X107045000Y-58250000D01*
X103103400Y-55521100D02*
X105832300Y-58250000D01*
X103103400Y-53929400D02*
X103103400Y-55521100D01*
X102885200Y-53711200D02*
X103103400Y-53929400D01*
X102885200Y-52656500D02*
X102885200Y-53711200D01*
X106296500Y-49245200D02*
X102885200Y-52656500D01*
X146088700Y-49245200D02*
X106296500Y-49245200D01*
X146138900Y-49295400D02*
X146088700Y-49245200D01*
%TO.N,/USB_DP*%
X107045000Y-59750000D02*
X106018300Y-59750000D01*
X135725200Y-65160100D02*
X135725200Y-66425400D01*
X107045000Y-58750000D02*
X106018300Y-58750000D01*
X106018300Y-59750000D02*
X106018300Y-58750000D01*
X144500000Y-52350000D02*
X144500000Y-51648300D01*
X136300500Y-51648300D02*
X144500000Y-51648300D01*
X134797100Y-53151700D02*
X136300500Y-51648300D01*
X133425300Y-53151700D02*
X134797100Y-53151700D01*
X133266800Y-52993200D02*
X133425300Y-53151700D01*
%TO.N,+3V3*%
X134105000Y-56095000D02*
X134105000Y-57365000D01*
X115580000Y-56940000D02*
X115500000Y-57020000D01*
X117255000Y-56940000D02*
X115580000Y-56940000D01*
X125385000Y-58635000D02*
X125000000Y-59020000D01*
X126895000Y-58635000D02*
X125385000Y-58635000D01*
X156132200Y-63167800D02*
X155520000Y-63780000D01*
X156333900Y-63167800D02*
X156132200Y-63167800D01*
X156640000Y-62861700D02*
X156333900Y-63167800D01*
X156640000Y-62130000D02*
X156640000Y-62861700D01*
X156000000Y-61490000D02*
X156640000Y-62130000D01*
X124582500Y-58602500D02*
X125000000Y-59020000D01*
X117255000Y-58602500D02*
X124582500Y-58602500D01*
X117255000Y-56940000D02*
X117255000Y-58602500D01*
X114917500Y-58602500D02*
X112020000Y-61500000D01*
X117255000Y-58602500D02*
X114917500Y-58602500D01*
X155340000Y-63600000D02*
X155520000Y-63780000D01*
X152350000Y-63600000D02*
X155340000Y-63600000D01*
X126895000Y-58635000D02*
X132087400Y-58635000D01*
X133357400Y-57365000D02*
X134105000Y-57365000D01*
X132087400Y-58635000D02*
X133357400Y-57365000D01*
X133335000Y-56095000D02*
X134105000Y-56095000D01*
X129240000Y-52000000D02*
X133335000Y-56095000D01*
X132087400Y-59334900D02*
X132087400Y-58635000D01*
X135552200Y-62799700D02*
X132087400Y-59334900D01*
X135736300Y-62615600D02*
X135552200Y-62799700D01*
X137234800Y-62615600D02*
X135736300Y-62615600D01*
X135000000Y-63351900D02*
X135000000Y-63490000D01*
X135552200Y-62799700D02*
X135000000Y-63351900D01*
X155520000Y-66000000D02*
X155520000Y-63948300D01*
X155520000Y-63948300D02*
X155520000Y-63780000D01*
X141620100Y-64000000D02*
X140334100Y-62714000D01*
X151773300Y-64000000D02*
X141620100Y-64000000D01*
X151825000Y-63948300D02*
X151773300Y-64000000D01*
X155520000Y-63948300D02*
X151825000Y-63948300D01*
%TO.N,Net-(U4-EN)*%
X137290000Y-65300000D02*
X138350000Y-65300000D01*
X136500000Y-64510000D02*
X137290000Y-65300000D01*
X136500000Y-64510000D02*
X135000000Y-64510000D01*
X136500000Y-64480000D02*
X136500000Y-64510000D01*
X132317100Y-61827100D02*
X135000000Y-64510000D01*
X123227100Y-61827100D02*
X132317100Y-61827100D01*
X122825000Y-61425000D02*
X123227100Y-61827100D01*
%TO.N,+5V*%
X119288900Y-56940000D02*
X118371100Y-56022200D01*
X119745000Y-56940000D02*
X119288900Y-56940000D01*
X107045000Y-56550000D02*
X108071700Y-56550000D01*
X115740100Y-56022200D02*
X115500000Y-55782100D01*
X118371100Y-56022200D02*
X115740100Y-56022200D01*
X115500000Y-55782100D02*
X115500000Y-55480000D01*
X108839600Y-55782100D02*
X108071700Y-56550000D01*
X115500000Y-55782100D02*
X108839600Y-55782100D01*
X108487500Y-56965800D02*
X108071700Y-56550000D01*
X108487500Y-61034200D02*
X108487500Y-56965800D01*
X108071700Y-61450000D02*
X108487500Y-61034200D01*
X107045000Y-61450000D02*
X108071700Y-61450000D01*
X119333300Y-55060000D02*
X119745000Y-55060000D01*
X118371100Y-56022200D02*
X119333300Y-55060000D01*
X125834500Y-55060000D02*
X126747100Y-54147400D01*
X119745000Y-55060000D02*
X125834500Y-55060000D01*
X152283500Y-50485200D02*
X157298300Y-55500000D01*
X129613400Y-50485200D02*
X152283500Y-50485200D01*
X129530200Y-50402000D02*
X129613400Y-50485200D01*
X158850000Y-55500000D02*
X157298300Y-55500000D01*
%TD*%
%TA.AperFunction,Conductor*%
%TO.N,GND*%
G36*
X145832040Y-48302390D02*
G01*
X145838642Y-48301187D01*
X145865148Y-48312111D01*
X145892643Y-48320185D01*
X145897034Y-48325253D01*
X145903240Y-48327811D01*
X145919631Y-48351331D01*
X145938398Y-48372989D01*
X145939352Y-48379629D01*
X145943189Y-48385134D01*
X145944262Y-48413775D01*
X145948342Y-48442147D01*
X145945554Y-48448250D01*
X145945806Y-48454954D01*
X145931224Y-48479629D01*
X145919317Y-48505703D01*
X145913217Y-48510101D01*
X145910260Y-48515106D01*
X145881304Y-48535286D01*
X145877249Y-48537324D01*
X145759721Y-48586006D01*
X145696795Y-48628051D01*
X145689964Y-48631486D01*
X145643131Y-48642596D01*
X145636477Y-48644680D01*
X145635489Y-48644409D01*
X145634264Y-48644700D01*
X106383170Y-48644700D01*
X106383154Y-48644699D01*
X106375558Y-48644699D01*
X106217443Y-48644699D01*
X106141079Y-48665161D01*
X106064714Y-48685623D01*
X106064709Y-48685626D01*
X105927790Y-48764675D01*
X105927782Y-48764681D01*
X102404681Y-52287782D01*
X102404677Y-52287787D01*
X102357954Y-52368716D01*
X102325623Y-52424715D01*
X102284699Y-52577443D01*
X102284699Y-52577445D01*
X102284699Y-52745546D01*
X102284700Y-52745559D01*
X102284700Y-53556000D01*
X102265015Y-53623039D01*
X102212211Y-53668794D01*
X102210926Y-53669073D01*
X102200000Y-53680000D01*
X102200000Y-54380000D01*
X101700000Y-54380000D01*
X101700000Y-53680000D01*
X101551504Y-53680000D01*
X101358318Y-53718427D01*
X101358306Y-53718430D01*
X101176328Y-53793807D01*
X101176315Y-53793814D01*
X101012537Y-53903248D01*
X101012533Y-53903251D01*
X100873251Y-54042533D01*
X100873248Y-54042537D01*
X100763814Y-54206315D01*
X100763807Y-54206328D01*
X100688430Y-54388307D01*
X100688430Y-54388309D01*
X100680138Y-54430000D01*
X101483012Y-54430000D01*
X101465795Y-54439940D01*
X101409940Y-54495795D01*
X101370444Y-54564204D01*
X101350000Y-54640504D01*
X101350000Y-54719496D01*
X101370444Y-54795796D01*
X101409940Y-54864205D01*
X101465795Y-54920060D01*
X101483012Y-54930000D01*
X100680138Y-54930000D01*
X100688430Y-54971690D01*
X100688430Y-54971692D01*
X100763807Y-55153671D01*
X100763814Y-55153684D01*
X100873248Y-55317462D01*
X100873251Y-55317466D01*
X101012533Y-55456748D01*
X101012537Y-55456751D01*
X101176315Y-55566185D01*
X101176328Y-55566192D01*
X101358306Y-55641569D01*
X101358318Y-55641572D01*
X101551504Y-55679999D01*
X101551508Y-55680000D01*
X101700000Y-55680000D01*
X101700000Y-54980000D01*
X102200000Y-54980000D01*
X102200000Y-55680000D01*
X102348492Y-55680000D01*
X102401489Y-55669458D01*
X102471080Y-55675685D01*
X102526258Y-55718547D01*
X102535308Y-55733128D01*
X102541840Y-55745486D01*
X102543823Y-55752885D01*
X102565491Y-55790415D01*
X102566647Y-55792417D01*
X102622877Y-55889812D01*
X102622881Y-55889817D01*
X102741749Y-56008685D01*
X102741755Y-56008690D01*
X105351778Y-58618713D01*
X105351780Y-58618716D01*
X105381484Y-58648420D01*
X105399365Y-58681167D01*
X105414966Y-58709738D01*
X105414966Y-58709740D01*
X105414967Y-58709742D01*
X105414966Y-58709745D01*
X105417800Y-58736098D01*
X105417800Y-59325002D01*
X105398115Y-59392041D01*
X105381481Y-59412683D01*
X103016381Y-61777782D01*
X103016377Y-61777787D01*
X102997612Y-61810292D01*
X102991080Y-61821606D01*
X102937323Y-61914715D01*
X102896399Y-62067443D01*
X102896399Y-62067445D01*
X102896399Y-62235546D01*
X102896400Y-62235559D01*
X102896400Y-62319775D01*
X102876715Y-62386814D01*
X102823911Y-62432569D01*
X102754753Y-62442513D01*
X102724948Y-62434336D01*
X102541693Y-62358430D01*
X102541681Y-62358427D01*
X102348495Y-62320000D01*
X102200000Y-62320000D01*
X102200000Y-63020000D01*
X101700000Y-63020000D01*
X101700000Y-62320000D01*
X101551504Y-62320000D01*
X101358318Y-62358427D01*
X101358306Y-62358430D01*
X101176328Y-62433807D01*
X101176315Y-62433814D01*
X101012537Y-62543248D01*
X101012533Y-62543251D01*
X100873251Y-62682533D01*
X100873248Y-62682537D01*
X100763814Y-62846315D01*
X100763807Y-62846328D01*
X100688430Y-63028307D01*
X100688430Y-63028309D01*
X100680138Y-63070000D01*
X101483012Y-63070000D01*
X101465795Y-63079940D01*
X101409940Y-63135795D01*
X101370444Y-63204204D01*
X101350000Y-63280504D01*
X101350000Y-63359496D01*
X101370444Y-63435796D01*
X101409940Y-63504205D01*
X101465795Y-63560060D01*
X101483012Y-63570000D01*
X100680138Y-63570000D01*
X100688430Y-63611690D01*
X100688430Y-63611692D01*
X100763807Y-63793671D01*
X100763814Y-63793684D01*
X100873248Y-63957462D01*
X100873251Y-63957466D01*
X101012533Y-64096748D01*
X101012537Y-64096751D01*
X101176315Y-64206185D01*
X101176328Y-64206192D01*
X101358306Y-64281569D01*
X101358318Y-64281572D01*
X101551504Y-64319999D01*
X101551508Y-64320000D01*
X101700000Y-64320000D01*
X101700000Y-63620000D01*
X102200000Y-63620000D01*
X102200000Y-64320000D01*
X102236319Y-64356319D01*
X102234622Y-64358015D01*
X102264494Y-64392489D01*
X102275700Y-64444000D01*
X102275700Y-65263730D01*
X102275699Y-65263748D01*
X102275699Y-65429454D01*
X102275698Y-65429454D01*
X102316623Y-65582185D01*
X102331229Y-65607483D01*
X102395677Y-65719112D01*
X102395681Y-65719117D01*
X102514549Y-65837985D01*
X102514555Y-65837990D01*
X106045278Y-69368713D01*
X106045280Y-69368716D01*
X106157084Y-69480520D01*
X106158137Y-69481128D01*
X106164687Y-69487653D01*
X106177796Y-69511552D01*
X106193867Y-69533569D01*
X106194352Y-69541736D01*
X106198288Y-69548912D01*
X106196394Y-69576106D01*
X106198012Y-69603316D01*
X106194004Y-69610450D01*
X106193436Y-69618613D01*
X106177141Y-69640465D01*
X106163791Y-69664231D01*
X106156562Y-69668065D01*
X106151671Y-69674626D01*
X106126149Y-69684200D01*
X106102069Y-69696975D01*
X106088401Y-69698361D01*
X106086253Y-69699167D01*
X106084397Y-69698767D01*
X106077172Y-69699500D01*
X100506093Y-69699500D01*
X100493939Y-69698903D01*
X100419822Y-69691603D01*
X100375688Y-69687256D01*
X100351848Y-69682514D01*
X100243997Y-69649798D01*
X100221541Y-69640496D01*
X100122150Y-69587370D01*
X100101940Y-69573866D01*
X100014820Y-69502369D01*
X99997630Y-69485179D01*
X99993806Y-69480520D01*
X99926133Y-69398059D01*
X99912629Y-69377849D01*
X99873441Y-69304534D01*
X99859501Y-69278453D01*
X99850201Y-69256002D01*
X99817483Y-69148145D01*
X99812744Y-69124317D01*
X99801097Y-69006061D01*
X99800500Y-68993907D01*
X99800500Y-49006092D01*
X99801097Y-48993938D01*
X99801097Y-48993937D01*
X99812744Y-48875678D01*
X99817483Y-48851856D01*
X99850203Y-48743990D01*
X99859499Y-48721549D01*
X99912632Y-48622144D01*
X99926133Y-48601940D01*
X99997635Y-48514814D01*
X100014814Y-48497635D01*
X100101942Y-48426131D01*
X100122144Y-48412632D01*
X100221549Y-48359499D01*
X100243990Y-48350203D01*
X100351856Y-48317483D01*
X100375682Y-48312744D01*
X100480811Y-48302390D01*
X100493940Y-48301097D01*
X100506093Y-48300500D01*
X100547595Y-48300500D01*
X145825604Y-48300500D01*
X145832040Y-48302390D01*
G37*
%TD.AperFunction*%
%TA.AperFunction,Conductor*%
G36*
X163506061Y-48301097D02*
G01*
X163624317Y-48312744D01*
X163648145Y-48317483D01*
X163756005Y-48350202D01*
X163778453Y-48359501D01*
X163877849Y-48412629D01*
X163898059Y-48426133D01*
X163985179Y-48497630D01*
X164002369Y-48514820D01*
X164073866Y-48601940D01*
X164087370Y-48622150D01*
X164140495Y-48721538D01*
X164149798Y-48743997D01*
X164182514Y-48851848D01*
X164187256Y-48875688D01*
X164198903Y-48993937D01*
X164199500Y-49006092D01*
X164199500Y-68993907D01*
X164198903Y-69006061D01*
X164198903Y-69006062D01*
X164187256Y-69124311D01*
X164182514Y-69148151D01*
X164149798Y-69256002D01*
X164140495Y-69278461D01*
X164087370Y-69377849D01*
X164073866Y-69398059D01*
X164002369Y-69485179D01*
X163985179Y-69502369D01*
X163898059Y-69573866D01*
X163877849Y-69587370D01*
X163778461Y-69640495D01*
X163756002Y-69649798D01*
X163648151Y-69682514D01*
X163624311Y-69687256D01*
X163563659Y-69693230D01*
X163506060Y-69698903D01*
X163493907Y-69699500D01*
X133599228Y-69699500D01*
X133577877Y-69693230D01*
X133555685Y-69691603D01*
X133545005Y-69683578D01*
X133532189Y-69679815D01*
X133517618Y-69662999D01*
X133499827Y-69649631D01*
X133495180Y-69637105D01*
X133486434Y-69627011D01*
X133483267Y-69604987D01*
X133475528Y-69584123D01*
X133478391Y-69571074D01*
X133476490Y-69557853D01*
X133485733Y-69537611D01*
X133490503Y-69515877D01*
X133501530Y-69503022D01*
X133505515Y-69494297D01*
X133511705Y-69487661D01*
X133518259Y-69481129D01*
X133519316Y-69480520D01*
X133631120Y-69368716D01*
X133631121Y-69368713D01*
X135637522Y-67362312D01*
X135698841Y-67328830D01*
X135768533Y-67333814D01*
X135812880Y-67362315D01*
X135891639Y-67441074D01*
X135891649Y-67441085D01*
X135895979Y-67445415D01*
X135895980Y-67445416D01*
X136007784Y-67557220D01*
X136094595Y-67607339D01*
X136094597Y-67607341D01*
X136144713Y-67636276D01*
X136144715Y-67636277D01*
X136297442Y-67677200D01*
X136297443Y-67677200D01*
X156294231Y-67677200D01*
X156294247Y-67677201D01*
X156301843Y-67677201D01*
X156459954Y-67677201D01*
X156459957Y-67677201D01*
X156612685Y-67636277D01*
X156662804Y-67607339D01*
X156749616Y-67557220D01*
X156861420Y-67445416D01*
X156861420Y-67445414D01*
X156871628Y-67435207D01*
X156871630Y-67435204D01*
X157858506Y-66448328D01*
X157858511Y-66448324D01*
X157868714Y-66438120D01*
X157868716Y-66438120D01*
X157980520Y-66326316D01*
X158059577Y-66189384D01*
X158100500Y-66036657D01*
X158100500Y-63674000D01*
X158120185Y-63606961D01*
X158172989Y-63561206D01*
X158224500Y-63550000D01*
X158600000Y-63550000D01*
X159100000Y-63550000D01*
X159600444Y-63550000D01*
X159667483Y-63569685D01*
X159713238Y-63622489D01*
X159723182Y-63691647D01*
X159696310Y-63751043D01*
X159696866Y-63751447D01*
X159694908Y-63754141D01*
X159694729Y-63754538D01*
X159694001Y-63755389D01*
X159559849Y-63940033D01*
X159456230Y-64143395D01*
X159385704Y-64360455D01*
X159371522Y-64450000D01*
X160424722Y-64450000D01*
X160380667Y-64526306D01*
X160350000Y-64640756D01*
X160350000Y-64759244D01*
X160380667Y-64873694D01*
X160424722Y-64950000D01*
X159371522Y-64950000D01*
X159385704Y-65039544D01*
X159456230Y-65256604D01*
X159559849Y-65459966D01*
X159694004Y-65644614D01*
X159855385Y-65805995D01*
X160040033Y-65940150D01*
X160243395Y-66043769D01*
X160460455Y-66114295D01*
X160685884Y-66150000D01*
X161350000Y-66150000D01*
X161350000Y-65150000D01*
X161850000Y-65150000D01*
X161850000Y-66150000D01*
X162514116Y-66150000D01*
X162739544Y-66114295D01*
X162956604Y-66043769D01*
X163159966Y-65940150D01*
X163344614Y-65805995D01*
X163505995Y-65644614D01*
X163640150Y-65459966D01*
X163743769Y-65256604D01*
X163814295Y-65039544D01*
X163828478Y-64950000D01*
X162775278Y-64950000D01*
X162819333Y-64873694D01*
X162850000Y-64759244D01*
X162850000Y-64640756D01*
X162819333Y-64526306D01*
X162775278Y-64450000D01*
X163828478Y-64450000D01*
X163814295Y-64360455D01*
X163743769Y-64143395D01*
X163640150Y-63940033D01*
X163505995Y-63755385D01*
X163344614Y-63594004D01*
X163159966Y-63459849D01*
X162956604Y-63356230D01*
X162739544Y-63285704D01*
X162514116Y-63250000D01*
X161850000Y-63250000D01*
X161850000Y-64250000D01*
X161350000Y-64250000D01*
X161350000Y-63250000D01*
X160721686Y-63250000D01*
X160654647Y-63230315D01*
X160608892Y-63177511D01*
X160598397Y-63112743D01*
X160599999Y-63097841D01*
X160600000Y-63097827D01*
X160600000Y-62750000D01*
X159100000Y-62750000D01*
X159100000Y-63550000D01*
X158600000Y-63550000D01*
X158600000Y-62624000D01*
X158619685Y-62556961D01*
X158672489Y-62511206D01*
X158724000Y-62500000D01*
X158850000Y-62500000D01*
X158850000Y-62374000D01*
X158869685Y-62306961D01*
X158922489Y-62261206D01*
X158974000Y-62250000D01*
X160600000Y-62250000D01*
X160600000Y-61902172D01*
X160599999Y-61902155D01*
X160593598Y-61842627D01*
X160593596Y-61842620D01*
X160543354Y-61707913D01*
X160543350Y-61707906D01*
X160457190Y-61592812D01*
X160457187Y-61592809D01*
X160342093Y-61506649D01*
X160342086Y-61506645D01*
X160207379Y-61456403D01*
X160207372Y-61456401D01*
X160147844Y-61450000D01*
X159224500Y-61450000D01*
X159215814Y-61447449D01*
X159206853Y-61448738D01*
X159182812Y-61437759D01*
X159157461Y-61430315D01*
X159151533Y-61423474D01*
X159143297Y-61419713D01*
X159129007Y-61397478D01*
X159111706Y-61377511D01*
X159109418Y-61366996D01*
X159105523Y-61360935D01*
X159100500Y-61326000D01*
X159100500Y-61221153D01*
X160799500Y-61221153D01*
X160799500Y-61378846D01*
X160830261Y-61533489D01*
X160830264Y-61533501D01*
X160890602Y-61679172D01*
X160890609Y-61679185D01*
X160978210Y-61810288D01*
X160978213Y-61810292D01*
X161089707Y-61921786D01*
X161089711Y-61921789D01*
X161220814Y-62009390D01*
X161220827Y-62009397D01*
X161366498Y-62069735D01*
X161366503Y-62069737D01*
X161479482Y-62092210D01*
X161521153Y-62100499D01*
X161521156Y-62100500D01*
X161521158Y-62100500D01*
X161678844Y-62100500D01*
X161678845Y-62100499D01*
X161833497Y-62069737D01*
X161961205Y-62016839D01*
X161979172Y-62009397D01*
X161979172Y-62009396D01*
X161979179Y-62009394D01*
X162110289Y-61921789D01*
X162221789Y-61810289D01*
X162309394Y-61679179D01*
X162310312Y-61676964D01*
X162369735Y-61533501D01*
X162369737Y-61533497D01*
X162400500Y-61378842D01*
X162400500Y-61221158D01*
X162400500Y-61221155D01*
X162400499Y-61221153D01*
X162390388Y-61170324D01*
X162369737Y-61066503D01*
X162364656Y-61054237D01*
X162309397Y-60920827D01*
X162309390Y-60920814D01*
X162221789Y-60789711D01*
X162221786Y-60789707D01*
X162110292Y-60678213D01*
X162110288Y-60678210D01*
X161979185Y-60590609D01*
X161979172Y-60590602D01*
X161833501Y-60530264D01*
X161833489Y-60530261D01*
X161678845Y-60499500D01*
X161678842Y-60499500D01*
X161521158Y-60499500D01*
X161521155Y-60499500D01*
X161366510Y-60530261D01*
X161366498Y-60530264D01*
X161220827Y-60590602D01*
X161220814Y-60590609D01*
X161089711Y-60678210D01*
X161089707Y-60678213D01*
X160978213Y-60789707D01*
X160978210Y-60789711D01*
X160890609Y-60920814D01*
X160890602Y-60920827D01*
X160830264Y-61066498D01*
X160830261Y-61066510D01*
X160799500Y-61221153D01*
X159100500Y-61221153D01*
X159100500Y-61174499D01*
X159120185Y-61107460D01*
X159172989Y-61061705D01*
X159224500Y-61050499D01*
X160147871Y-61050499D01*
X160147872Y-61050499D01*
X160207483Y-61044091D01*
X160342331Y-60993796D01*
X160457546Y-60907546D01*
X160543796Y-60792331D01*
X160594091Y-60657483D01*
X160600500Y-60597873D01*
X160600499Y-59402128D01*
X160594091Y-59342517D01*
X160587558Y-59325002D01*
X160543797Y-59207671D01*
X160543793Y-59207664D01*
X160457547Y-59092455D01*
X160452773Y-59087681D01*
X160419288Y-59026358D01*
X160424272Y-58956666D01*
X160452773Y-58912319D01*
X160457542Y-58907548D01*
X160457546Y-58907546D01*
X160543796Y-58792331D01*
X160594091Y-58657483D01*
X160600500Y-58597873D01*
X160600499Y-57402128D01*
X160594091Y-57342517D01*
X160591517Y-57335617D01*
X160543797Y-57207671D01*
X160543793Y-57207664D01*
X160457547Y-57092455D01*
X160457544Y-57092452D01*
X160342335Y-57006206D01*
X160342328Y-57006202D01*
X160207482Y-56955908D01*
X160207483Y-56955908D01*
X160147883Y-56949501D01*
X160147881Y-56949500D01*
X160147873Y-56949500D01*
X160147864Y-56949500D01*
X157552129Y-56949500D01*
X157552123Y-56949501D01*
X157492516Y-56955908D01*
X157357671Y-57006202D01*
X157357664Y-57006206D01*
X157242455Y-57092452D01*
X157242452Y-57092455D01*
X157156206Y-57207664D01*
X157156202Y-57207671D01*
X157114742Y-57318833D01*
X157072871Y-57374767D01*
X157007407Y-57399184D01*
X156998560Y-57399500D01*
X155674969Y-57399500D01*
X155674953Y-57399499D01*
X155667357Y-57399499D01*
X155509243Y-57399499D01*
X155401887Y-57428265D01*
X155356510Y-57440424D01*
X155356509Y-57440425D01*
X155306396Y-57469359D01*
X155306395Y-57469360D01*
X155262989Y-57494420D01*
X155219585Y-57519479D01*
X155219582Y-57519481D01*
X153462180Y-59276884D01*
X153400857Y-59310369D01*
X153331165Y-59305385D01*
X153275232Y-59263513D01*
X153250815Y-59198049D01*
X153250499Y-59189203D01*
X153250499Y-59102129D01*
X153250498Y-59102123D01*
X153244091Y-59042518D01*
X153244091Y-59042517D01*
X153216421Y-58968332D01*
X153211438Y-58898642D01*
X153216422Y-58881667D01*
X153244091Y-58807483D01*
X153250500Y-58747873D01*
X153250499Y-58252128D01*
X153244091Y-58192517D01*
X153216421Y-58118332D01*
X153211438Y-58048642D01*
X153216422Y-58031667D01*
X153244091Y-57957483D01*
X153250500Y-57897873D01*
X153250499Y-57402128D01*
X153244091Y-57342517D01*
X153216421Y-57268332D01*
X153211438Y-57198642D01*
X153216422Y-57181667D01*
X153244091Y-57107483D01*
X153250500Y-57047873D01*
X153250499Y-56621153D01*
X160799500Y-56621153D01*
X160799500Y-56778843D01*
X160830261Y-56933489D01*
X160830264Y-56933501D01*
X160890602Y-57079172D01*
X160890609Y-57079185D01*
X160978210Y-57210288D01*
X160978213Y-57210292D01*
X161089707Y-57321786D01*
X161089711Y-57321789D01*
X161220814Y-57409390D01*
X161220827Y-57409397D01*
X161365590Y-57469359D01*
X161366503Y-57469737D01*
X161521153Y-57500499D01*
X161521156Y-57500500D01*
X161521158Y-57500500D01*
X161678844Y-57500500D01*
X161678845Y-57500499D01*
X161833497Y-57469737D01*
X161979179Y-57409394D01*
X162110289Y-57321789D01*
X162221789Y-57210289D01*
X162309394Y-57079179D01*
X162369737Y-56933497D01*
X162400500Y-56778842D01*
X162400500Y-56621158D01*
X162400500Y-56621155D01*
X162400499Y-56621153D01*
X162378305Y-56509577D01*
X162369737Y-56466503D01*
X162361796Y-56447332D01*
X162309397Y-56320827D01*
X162309390Y-56320814D01*
X162221789Y-56189711D01*
X162221786Y-56189707D01*
X162110292Y-56078213D01*
X162110288Y-56078210D01*
X161979185Y-55990609D01*
X161979172Y-55990602D01*
X161833501Y-55930264D01*
X161833489Y-55930261D01*
X161678845Y-55899500D01*
X161678842Y-55899500D01*
X161521158Y-55899500D01*
X161521155Y-55899500D01*
X161366510Y-55930261D01*
X161366498Y-55930264D01*
X161220827Y-55990602D01*
X161220814Y-55990609D01*
X161089711Y-56078210D01*
X161089707Y-56078213D01*
X160978213Y-56189707D01*
X160978210Y-56189711D01*
X160890609Y-56320814D01*
X160890602Y-56320827D01*
X160830264Y-56466498D01*
X160830261Y-56466510D01*
X160799500Y-56621153D01*
X153250499Y-56621153D01*
X153250499Y-56552128D01*
X153244091Y-56492517D01*
X153216421Y-56418332D01*
X153211438Y-56348642D01*
X153216422Y-56331667D01*
X153244091Y-56257483D01*
X153250500Y-56197873D01*
X153250499Y-55702128D01*
X153244091Y-55642517D01*
X153216421Y-55568332D01*
X153211438Y-55498642D01*
X153216422Y-55481667D01*
X153244091Y-55407483D01*
X153250500Y-55347873D01*
X153250499Y-54852128D01*
X153244091Y-54792517D01*
X153216421Y-54718332D01*
X153211438Y-54648642D01*
X153216422Y-54631667D01*
X153244091Y-54557483D01*
X153250500Y-54497873D01*
X153250499Y-54002128D01*
X153244091Y-53942517D01*
X153216421Y-53868332D01*
X153211438Y-53798642D01*
X153216422Y-53781667D01*
X153244091Y-53707483D01*
X153250500Y-53647873D01*
X153250499Y-53152128D01*
X153244091Y-53092517D01*
X153216154Y-53017616D01*
X153211171Y-52947927D01*
X153216156Y-52930950D01*
X153243597Y-52857379D01*
X153243597Y-52857377D01*
X153249999Y-52797844D01*
X153250000Y-52797827D01*
X153250000Y-52600297D01*
X153269685Y-52533258D01*
X153322489Y-52487503D01*
X153391647Y-52477559D01*
X153455203Y-52506584D01*
X153461681Y-52512616D01*
X156813439Y-55864374D01*
X156813449Y-55864385D01*
X156817779Y-55868715D01*
X156817780Y-55868716D01*
X156929584Y-55980520D01*
X156929586Y-55980521D01*
X156929590Y-55980524D01*
X156995850Y-56018779D01*
X156995857Y-56018782D01*
X157042739Y-56045850D01*
X157090954Y-56096417D01*
X157104028Y-56139984D01*
X157105908Y-56157483D01*
X157156202Y-56292328D01*
X157156206Y-56292335D01*
X157242452Y-56407544D01*
X157242455Y-56407547D01*
X157357664Y-56493793D01*
X157357671Y-56493797D01*
X157492517Y-56544091D01*
X157492516Y-56544091D01*
X157495251Y-56544385D01*
X157552127Y-56550500D01*
X160147872Y-56550499D01*
X160207483Y-56544091D01*
X160260688Y-56524247D01*
X160328690Y-56498884D01*
X160328690Y-56498883D01*
X160342331Y-56493796D01*
X160457546Y-56407546D01*
X160543796Y-56292331D01*
X160594091Y-56157483D01*
X160600500Y-56097873D01*
X160600499Y-54902128D01*
X160598900Y-54887253D01*
X160611306Y-54818495D01*
X160658917Y-54767358D01*
X160722190Y-54750000D01*
X161350000Y-54750000D01*
X161350000Y-53750000D01*
X161850000Y-53750000D01*
X161850000Y-54750000D01*
X162514116Y-54750000D01*
X162739544Y-54714295D01*
X162956604Y-54643769D01*
X163159966Y-54540150D01*
X163344614Y-54405995D01*
X163505995Y-54244614D01*
X163640150Y-54059966D01*
X163743769Y-53856604D01*
X163814295Y-53639544D01*
X163828478Y-53550000D01*
X162775278Y-53550000D01*
X162819333Y-53473694D01*
X162850000Y-53359244D01*
X162850000Y-53240756D01*
X162819333Y-53126306D01*
X162775278Y-53050000D01*
X163828478Y-53050000D01*
X163814295Y-52960455D01*
X163743769Y-52743395D01*
X163640150Y-52540033D01*
X163505995Y-52355385D01*
X163344614Y-52194004D01*
X163159966Y-52059849D01*
X162956604Y-51956230D01*
X162739544Y-51885704D01*
X162514116Y-51850000D01*
X161850000Y-51850000D01*
X161850000Y-52850000D01*
X161350000Y-52850000D01*
X161350000Y-51850000D01*
X160685884Y-51850000D01*
X160460455Y-51885704D01*
X160243395Y-51956230D01*
X160040033Y-52059849D01*
X159855385Y-52194004D01*
X159694004Y-52355385D01*
X159559849Y-52540033D01*
X159456230Y-52743395D01*
X159385704Y-52960455D01*
X159371522Y-53050000D01*
X160424722Y-53050000D01*
X160380667Y-53126306D01*
X160350000Y-53240756D01*
X160350000Y-53359244D01*
X160380667Y-53473694D01*
X160424722Y-53550000D01*
X159371522Y-53550000D01*
X159385704Y-53639544D01*
X159456230Y-53856604D01*
X159559849Y-54059966D01*
X159694007Y-54244618D01*
X159694311Y-54244974D01*
X159694383Y-54245136D01*
X159696866Y-54248553D01*
X159696148Y-54249074D01*
X159722878Y-54308737D01*
X159712437Y-54377822D01*
X159666303Y-54430295D01*
X159600016Y-54449500D01*
X157552129Y-54449500D01*
X157552123Y-54449501D01*
X157492516Y-54455908D01*
X157357671Y-54506202D01*
X157357669Y-54506203D01*
X157327058Y-54529119D01*
X157261593Y-54553535D01*
X157193320Y-54538683D01*
X157165067Y-54517532D01*
X152771090Y-50123555D01*
X152771088Y-50123552D01*
X152652217Y-50004681D01*
X152652212Y-50004677D01*
X152515903Y-49925980D01*
X152515871Y-49925946D01*
X152515865Y-49925958D01*
X152515286Y-49925623D01*
X152477103Y-49915392D01*
X152362557Y-49884699D01*
X152204443Y-49884699D01*
X152196847Y-49884699D01*
X152196831Y-49884700D01*
X146939884Y-49884700D01*
X146872845Y-49865015D01*
X146827090Y-49812211D01*
X146817146Y-49743053D01*
X146836782Y-49691809D01*
X146848290Y-49674585D01*
X146848290Y-49674584D01*
X146848294Y-49674579D01*
X146908637Y-49528897D01*
X146939400Y-49374242D01*
X146939400Y-49216558D01*
X146939400Y-49216555D01*
X146939399Y-49216553D01*
X146908638Y-49061910D01*
X146908637Y-49061903D01*
X146880485Y-48993937D01*
X146848297Y-48916227D01*
X146848290Y-48916214D01*
X146760689Y-48785111D01*
X146760686Y-48785107D01*
X146649192Y-48673613D01*
X146649188Y-48673610D01*
X146518085Y-48586009D01*
X146518072Y-48586002D01*
X146404744Y-48539061D01*
X146350340Y-48495220D01*
X146328275Y-48428926D01*
X146345554Y-48361227D01*
X146396691Y-48313616D01*
X146452196Y-48300500D01*
X163452405Y-48300500D01*
X163493907Y-48300500D01*
X163506061Y-48301097D01*
G37*
%TD.AperFunction*%
%TA.AperFunction,Conductor*%
G36*
X117291885Y-62200924D02*
G01*
X117342339Y-62240602D01*
X117358381Y-62262031D01*
X117392454Y-62307546D01*
X117452949Y-62352832D01*
X117460679Y-62363159D01*
X117471596Y-62370033D01*
X117486207Y-62397261D01*
X117494820Y-62408766D01*
X117495194Y-62414008D01*
X117498412Y-62420003D01*
X117515422Y-62483481D01*
X117515426Y-62483490D01*
X117594475Y-62620409D01*
X117594479Y-62620414D01*
X117594480Y-62620416D01*
X117706284Y-62732220D01*
X117706286Y-62732221D01*
X117706290Y-62732224D01*
X117835740Y-62806961D01*
X117843216Y-62811277D01*
X117995943Y-62852200D01*
X118154057Y-62852200D01*
X131346103Y-62852200D01*
X131413142Y-62871885D01*
X131433784Y-62888519D01*
X132258523Y-63713258D01*
X132292008Y-63774581D01*
X132292459Y-63776747D01*
X132322961Y-63930091D01*
X132322964Y-63930101D01*
X132383302Y-64075772D01*
X132383309Y-64075785D01*
X132470910Y-64206888D01*
X132470913Y-64206892D01*
X132582407Y-64318386D01*
X132582411Y-64318389D01*
X132713514Y-64405990D01*
X132713527Y-64405997D01*
X132859198Y-64466335D01*
X132859203Y-64466337D01*
X133013853Y-64497099D01*
X133013856Y-64497100D01*
X133013858Y-64497100D01*
X133171544Y-64497100D01*
X133171545Y-64497099D01*
X133326197Y-64466337D01*
X133471879Y-64405994D01*
X133602989Y-64318389D01*
X133693391Y-64227986D01*
X133754712Y-64194503D01*
X133824404Y-64199487D01*
X133868752Y-64227988D01*
X134143181Y-64502417D01*
X134176666Y-64563740D01*
X134179500Y-64590097D01*
X134179500Y-64709168D01*
X134179501Y-64709192D01*
X134182335Y-64745205D01*
X134227129Y-64899388D01*
X134227131Y-64899393D01*
X134308863Y-65037595D01*
X134308869Y-65037603D01*
X134422396Y-65151130D01*
X134422400Y-65151133D01*
X134422402Y-65151135D01*
X134560607Y-65232869D01*
X134601268Y-65244682D01*
X134714791Y-65277664D01*
X134714794Y-65277664D01*
X134714796Y-65277665D01*
X134750819Y-65280500D01*
X134831202Y-65280499D01*
X134898240Y-65300183D01*
X134943996Y-65352986D01*
X134952819Y-65380307D01*
X134955461Y-65393591D01*
X134955464Y-65393601D01*
X135015802Y-65539272D01*
X135015809Y-65539285D01*
X135103802Y-65670974D01*
X135124680Y-65737651D01*
X135124700Y-65739865D01*
X135124700Y-66125303D01*
X135105015Y-66192342D01*
X135088381Y-66212984D01*
X132938184Y-68363181D01*
X132876861Y-68396666D01*
X132850503Y-68399500D01*
X106825897Y-68399500D01*
X106758858Y-68379815D01*
X106738216Y-68363181D01*
X104768748Y-66393713D01*
X108649500Y-66393713D01*
X108649500Y-66606286D01*
X108682753Y-66816239D01*
X108748444Y-67018414D01*
X108844951Y-67207820D01*
X108969890Y-67379786D01*
X109120213Y-67530109D01*
X109292179Y-67655048D01*
X109292181Y-67655049D01*
X109292184Y-67655051D01*
X109481588Y-67751557D01*
X109683757Y-67817246D01*
X109893713Y-67850500D01*
X109893714Y-67850500D01*
X110106286Y-67850500D01*
X110106287Y-67850500D01*
X110316243Y-67817246D01*
X110518412Y-67751557D01*
X110707816Y-67655051D01*
X110733658Y-67636276D01*
X110879786Y-67530109D01*
X110879788Y-67530106D01*
X110879792Y-67530104D01*
X111030104Y-67379792D01*
X111030106Y-67379788D01*
X111030109Y-67379786D01*
X111155048Y-67207820D01*
X111155047Y-67207820D01*
X111155051Y-67207816D01*
X111251557Y-67018412D01*
X111317246Y-66816243D01*
X111350500Y-66606287D01*
X111350500Y-66393713D01*
X111317246Y-66183757D01*
X111305577Y-66147844D01*
X115100000Y-66147844D01*
X115106401Y-66207372D01*
X115106403Y-66207379D01*
X115156645Y-66342086D01*
X115156649Y-66342093D01*
X115242809Y-66457187D01*
X115242812Y-66457190D01*
X115357906Y-66543350D01*
X115357913Y-66543354D01*
X115492620Y-66593596D01*
X115492627Y-66593598D01*
X115552155Y-66599999D01*
X115552172Y-66600000D01*
X115675000Y-66600000D01*
X116175000Y-66600000D01*
X116297828Y-66600000D01*
X116297844Y-66599999D01*
X116357372Y-66593598D01*
X116357379Y-66593596D01*
X116492086Y-66543354D01*
X116492093Y-66543350D01*
X116607187Y-66457190D01*
X116607190Y-66457187D01*
X116693350Y-66342093D01*
X116693354Y-66342086D01*
X116743596Y-66207379D01*
X116743598Y-66207372D01*
X116749999Y-66147844D01*
X116750000Y-66147827D01*
X116750000Y-65825000D01*
X116175000Y-65825000D01*
X116175000Y-66600000D01*
X115675000Y-66600000D01*
X115675000Y-65825000D01*
X115100000Y-65825000D01*
X115100000Y-66147844D01*
X111305577Y-66147844D01*
X111251557Y-65981588D01*
X111155051Y-65792184D01*
X111135520Y-65765302D01*
X111030109Y-65620213D01*
X110879786Y-65469890D01*
X110707820Y-65344951D01*
X110518414Y-65248444D01*
X110518413Y-65248443D01*
X110518412Y-65248443D01*
X110316243Y-65182754D01*
X110316241Y-65182753D01*
X110316240Y-65182753D01*
X110154957Y-65157208D01*
X110106287Y-65149500D01*
X109893713Y-65149500D01*
X109845042Y-65157208D01*
X109683760Y-65182753D01*
X109481585Y-65248444D01*
X109292179Y-65344951D01*
X109120213Y-65469890D01*
X108969890Y-65620213D01*
X108844951Y-65792179D01*
X108748444Y-65981585D01*
X108682753Y-66183760D01*
X108649500Y-66393713D01*
X104768748Y-66393713D01*
X104407215Y-66032180D01*
X104373730Y-65970857D01*
X104378714Y-65901165D01*
X104420586Y-65845232D01*
X104486050Y-65820815D01*
X104494880Y-65820499D01*
X104709180Y-65820499D01*
X104745204Y-65817665D01*
X104899393Y-65772869D01*
X105037598Y-65691135D01*
X105151135Y-65577598D01*
X105232869Y-65439393D01*
X105277665Y-65285204D01*
X105280500Y-65249181D01*
X105280500Y-65002155D01*
X115100000Y-65002155D01*
X115100000Y-65325000D01*
X115675000Y-65325000D01*
X116175000Y-65325000D01*
X116750000Y-65325000D01*
X116750000Y-65002164D01*
X116749997Y-65002135D01*
X117249500Y-65002135D01*
X117249500Y-66147870D01*
X117249501Y-66147876D01*
X117255908Y-66207483D01*
X117306202Y-66342328D01*
X117306206Y-66342335D01*
X117392452Y-66457544D01*
X117392455Y-66457547D01*
X117507664Y-66543793D01*
X117507671Y-66543797D01*
X117552618Y-66560561D01*
X117642517Y-66594091D01*
X117702127Y-66600500D01*
X118447872Y-66600499D01*
X118507483Y-66594091D01*
X118642331Y-66543796D01*
X118757546Y-66457546D01*
X118843796Y-66342331D01*
X118894091Y-66207483D01*
X118900500Y-66147873D01*
X118900500Y-66147844D01*
X119850000Y-66147844D01*
X119856401Y-66207372D01*
X119856403Y-66207379D01*
X119906645Y-66342086D01*
X119906649Y-66342093D01*
X119992809Y-66457187D01*
X119992812Y-66457190D01*
X120107906Y-66543350D01*
X120107913Y-66543354D01*
X120242620Y-66593596D01*
X120242627Y-66593598D01*
X120302155Y-66599999D01*
X120302172Y-66600000D01*
X120425000Y-66600000D01*
X120925000Y-66600000D01*
X121047828Y-66600000D01*
X121047844Y-66599999D01*
X121107372Y-66593598D01*
X121107379Y-66593596D01*
X121242086Y-66543354D01*
X121242093Y-66543350D01*
X121357187Y-66457190D01*
X121357190Y-66457187D01*
X121443350Y-66342093D01*
X121443354Y-66342086D01*
X121493596Y-66207379D01*
X121493598Y-66207372D01*
X121499999Y-66147844D01*
X121500000Y-66147827D01*
X121500000Y-65825000D01*
X120925000Y-65825000D01*
X120925000Y-66600000D01*
X120425000Y-66600000D01*
X120425000Y-65825000D01*
X119850000Y-65825000D01*
X119850000Y-66147844D01*
X118900500Y-66147844D01*
X118900499Y-65573609D01*
X118900499Y-65002155D01*
X119850000Y-65002155D01*
X119850000Y-65325000D01*
X120425000Y-65325000D01*
X120925000Y-65325000D01*
X121500000Y-65325000D01*
X121500000Y-65002164D01*
X121499997Y-65002135D01*
X121999500Y-65002135D01*
X121999500Y-66147870D01*
X121999501Y-66147876D01*
X122005908Y-66207483D01*
X122056202Y-66342328D01*
X122056206Y-66342335D01*
X122142452Y-66457544D01*
X122142455Y-66457547D01*
X122257664Y-66543793D01*
X122257671Y-66543797D01*
X122302618Y-66560561D01*
X122392517Y-66594091D01*
X122452127Y-66600500D01*
X123197872Y-66600499D01*
X123257483Y-66594091D01*
X123392331Y-66543796D01*
X123507546Y-66457546D01*
X123593796Y-66342331D01*
X123644091Y-66207483D01*
X123650500Y-66147873D01*
X123650499Y-65002128D01*
X123644091Y-64942517D01*
X123635071Y-64918334D01*
X123593797Y-64807671D01*
X123593793Y-64807664D01*
X123507547Y-64692455D01*
X123507544Y-64692452D01*
X123392335Y-64606206D01*
X123392328Y-64606202D01*
X123257486Y-64555910D01*
X123257485Y-64555909D01*
X123257483Y-64555909D01*
X123197873Y-64549500D01*
X123197863Y-64549500D01*
X122452129Y-64549500D01*
X122452123Y-64549501D01*
X122392516Y-64555908D01*
X122257671Y-64606202D01*
X122257664Y-64606206D01*
X122142455Y-64692452D01*
X122142452Y-64692455D01*
X122056206Y-64807664D01*
X122056202Y-64807671D01*
X122005908Y-64942517D01*
X121999501Y-65002116D01*
X121999501Y-65002123D01*
X121999500Y-65002135D01*
X121499997Y-65002135D01*
X121493598Y-64942627D01*
X121493596Y-64942620D01*
X121443354Y-64807913D01*
X121443350Y-64807906D01*
X121357190Y-64692812D01*
X121357187Y-64692809D01*
X121242093Y-64606649D01*
X121242086Y-64606645D01*
X121107379Y-64556403D01*
X121107372Y-64556401D01*
X121047844Y-64550000D01*
X120925000Y-64550000D01*
X120925000Y-65325000D01*
X120425000Y-65325000D01*
X120425000Y-64550000D01*
X120302155Y-64550000D01*
X120242627Y-64556401D01*
X120242620Y-64556403D01*
X120107913Y-64606645D01*
X120107906Y-64606649D01*
X119992812Y-64692809D01*
X119992809Y-64692812D01*
X119906649Y-64807906D01*
X119906645Y-64807913D01*
X119856403Y-64942620D01*
X119856401Y-64942627D01*
X119850000Y-65002155D01*
X118900499Y-65002155D01*
X118900499Y-65002129D01*
X118900498Y-65002123D01*
X118900497Y-65002116D01*
X118894091Y-64942517D01*
X118885071Y-64918334D01*
X118843797Y-64807671D01*
X118843793Y-64807664D01*
X118757547Y-64692455D01*
X118757544Y-64692452D01*
X118642335Y-64606206D01*
X118642328Y-64606202D01*
X118507486Y-64555910D01*
X118507485Y-64555909D01*
X118507483Y-64555909D01*
X118447873Y-64549500D01*
X118447863Y-64549500D01*
X117702129Y-64549500D01*
X117702123Y-64549501D01*
X117642516Y-64555908D01*
X117507671Y-64606202D01*
X117507664Y-64606206D01*
X117392455Y-64692452D01*
X117392452Y-64692455D01*
X117306206Y-64807664D01*
X117306202Y-64807671D01*
X117255908Y-64942517D01*
X117249501Y-65002116D01*
X117249501Y-65002123D01*
X117249500Y-65002135D01*
X116749997Y-65002135D01*
X116743598Y-64942627D01*
X116743596Y-64942620D01*
X116693354Y-64807913D01*
X116693350Y-64807906D01*
X116607190Y-64692812D01*
X116607187Y-64692809D01*
X116492093Y-64606649D01*
X116492086Y-64606645D01*
X116357379Y-64556403D01*
X116357372Y-64556401D01*
X116297844Y-64550000D01*
X116175000Y-64550000D01*
X116175000Y-65325000D01*
X115675000Y-65325000D01*
X115675000Y-64550000D01*
X115552155Y-64550000D01*
X115492627Y-64556401D01*
X115492620Y-64556403D01*
X115357913Y-64606645D01*
X115357906Y-64606649D01*
X115242812Y-64692809D01*
X115242809Y-64692812D01*
X115156649Y-64807906D01*
X115156645Y-64807913D01*
X115106403Y-64942620D01*
X115106401Y-64942627D01*
X115100000Y-65002155D01*
X105280500Y-65002155D01*
X105280499Y-64750820D01*
X105277665Y-64714796D01*
X105232869Y-64560607D01*
X105232259Y-64559575D01*
X105179730Y-64470753D01*
X105162547Y-64403028D01*
X105184707Y-64336766D01*
X105239174Y-64293003D01*
X105308654Y-64285634D01*
X105310653Y-64286015D01*
X105481505Y-64319999D01*
X105481508Y-64320000D01*
X105880000Y-64320000D01*
X105880000Y-63620000D01*
X106380000Y-63620000D01*
X106380000Y-64320000D01*
X106778492Y-64320000D01*
X106778495Y-64319999D01*
X106971681Y-64281572D01*
X106971693Y-64281569D01*
X107153671Y-64206192D01*
X107153684Y-64206185D01*
X107317462Y-64096751D01*
X107317466Y-64096748D01*
X107456748Y-63957466D01*
X107456751Y-63957462D01*
X107566185Y-63793684D01*
X107566192Y-63793671D01*
X107641569Y-63611692D01*
X107641569Y-63611690D01*
X107649862Y-63570000D01*
X106846988Y-63570000D01*
X106864205Y-63560060D01*
X106920060Y-63504205D01*
X106952600Y-63447844D01*
X108235000Y-63447844D01*
X108241401Y-63507372D01*
X108241403Y-63507379D01*
X108291645Y-63642086D01*
X108291649Y-63642093D01*
X108377809Y-63757187D01*
X108377812Y-63757190D01*
X108492906Y-63843350D01*
X108492913Y-63843354D01*
X108627620Y-63893596D01*
X108627627Y-63893598D01*
X108687155Y-63899999D01*
X108687172Y-63900000D01*
X108835000Y-63900000D01*
X108835000Y-63300000D01*
X108235000Y-63300000D01*
X108235000Y-63447844D01*
X106952600Y-63447844D01*
X106959556Y-63435796D01*
X106980000Y-63359496D01*
X106980000Y-63280504D01*
X106959556Y-63204204D01*
X106920060Y-63135795D01*
X106864205Y-63079940D01*
X106795796Y-63040444D01*
X106795000Y-63040230D01*
X106795000Y-62500000D01*
X106103242Y-62500000D01*
X106036203Y-62480315D01*
X105990448Y-62427511D01*
X105980504Y-62358353D01*
X106009529Y-62294797D01*
X106015545Y-62288334D01*
X106044930Y-62258949D01*
X106106249Y-62225466D01*
X106175941Y-62230449D01*
X106175942Y-62230450D01*
X106206296Y-62241771D01*
X106212517Y-62244091D01*
X106272127Y-62250500D01*
X107171001Y-62250499D01*
X107238039Y-62270183D01*
X107283794Y-62322987D01*
X107295000Y-62374499D01*
X107295000Y-63070000D01*
X107666265Y-63070000D01*
X107686818Y-63056000D01*
X107724924Y-63050000D01*
X107817828Y-63050000D01*
X107817844Y-63049999D01*
X107877372Y-63043598D01*
X107877376Y-63043597D01*
X108012093Y-62993350D01*
X108105000Y-62923799D01*
X108105142Y-62923516D01*
X108124685Y-62856961D01*
X108177489Y-62811206D01*
X108229000Y-62800000D01*
X108675833Y-62800000D01*
X108683811Y-62800427D01*
X108683817Y-62800322D01*
X108687102Y-62800497D01*
X108687127Y-62800500D01*
X108961002Y-62800499D01*
X109028039Y-62820183D01*
X109073794Y-62872987D01*
X109085000Y-62924499D01*
X109085000Y-63050000D01*
X109211000Y-63050000D01*
X109278039Y-63069685D01*
X109323794Y-63122489D01*
X109335000Y-63174000D01*
X109335000Y-63900000D01*
X109482828Y-63900000D01*
X109482844Y-63899999D01*
X109542372Y-63893598D01*
X109542379Y-63893596D01*
X109677086Y-63843354D01*
X109677093Y-63843350D01*
X109792187Y-63757190D01*
X109792190Y-63757187D01*
X109878350Y-63642093D01*
X109878354Y-63642086D01*
X109883550Y-63628155D01*
X109925420Y-63572220D01*
X109990884Y-63547801D01*
X110059157Y-63562651D01*
X110108564Y-63612055D01*
X110115915Y-63628151D01*
X110121203Y-63642330D01*
X110121206Y-63642335D01*
X110207452Y-63757544D01*
X110207455Y-63757547D01*
X110322664Y-63843793D01*
X110322671Y-63843797D01*
X110335911Y-63848735D01*
X110457517Y-63894091D01*
X110517127Y-63900500D01*
X110864902Y-63900499D01*
X110931941Y-63920183D01*
X110952582Y-63936817D01*
X111546284Y-64530520D01*
X111546286Y-64530521D01*
X111546290Y-64530524D01*
X111683209Y-64609573D01*
X111683216Y-64609577D01*
X111835943Y-64650501D01*
X111835945Y-64650501D01*
X112145754Y-64650501D01*
X112145757Y-64650501D01*
X112294289Y-64610701D01*
X112364136Y-64612364D01*
X112414061Y-64642795D01*
X112462396Y-64691130D01*
X112462400Y-64691133D01*
X112462402Y-64691135D01*
X112600607Y-64772869D01*
X112600614Y-64772871D01*
X112754791Y-64817664D01*
X112754794Y-64817664D01*
X112754796Y-64817665D01*
X112790819Y-64820500D01*
X113189180Y-64820499D01*
X113225204Y-64817665D01*
X113379393Y-64772869D01*
X113436882Y-64738869D01*
X113504602Y-64721688D01*
X113563117Y-64738869D01*
X113620607Y-64772869D01*
X113620610Y-64772869D01*
X113620612Y-64772871D01*
X113774791Y-64817664D01*
X113774794Y-64817664D01*
X113774796Y-64817665D01*
X113810819Y-64820500D01*
X114209180Y-64820499D01*
X114245204Y-64817665D01*
X114399393Y-64772869D01*
X114537598Y-64691135D01*
X114591914Y-64636818D01*
X114653235Y-64603335D01*
X114679594Y-64600501D01*
X114726654Y-64600501D01*
X114726657Y-64600501D01*
X114879385Y-64559577D01*
X114965947Y-64509600D01*
X115016316Y-64480520D01*
X115128120Y-64368716D01*
X115128120Y-64368714D01*
X115138324Y-64358511D01*
X115138328Y-64358506D01*
X115894699Y-63602135D01*
X126649500Y-63602135D01*
X126649500Y-65397870D01*
X126649501Y-65397876D01*
X126655908Y-65457483D01*
X126706202Y-65592328D01*
X126706206Y-65592335D01*
X126792452Y-65707544D01*
X126792455Y-65707547D01*
X126907664Y-65793793D01*
X126907671Y-65793797D01*
X127042517Y-65844091D01*
X127042516Y-65844091D01*
X127049444Y-65844835D01*
X127102127Y-65850500D01*
X128897872Y-65850499D01*
X128957483Y-65844091D01*
X129092331Y-65793796D01*
X129207546Y-65707546D01*
X129293796Y-65592331D01*
X129344091Y-65457483D01*
X129350500Y-65397873D01*
X129350499Y-65373979D01*
X129353330Y-65360963D01*
X129363940Y-65341525D01*
X129370179Y-65320275D01*
X129386803Y-65299643D01*
X129386808Y-65299636D01*
X129386811Y-65299634D01*
X129386818Y-65299626D01*
X130057037Y-64629408D01*
X130074075Y-64692993D01*
X130139901Y-64807007D01*
X130232993Y-64900099D01*
X130347007Y-64965925D01*
X130410590Y-64982962D01*
X129778282Y-65615269D01*
X129778282Y-65615270D01*
X129832449Y-65654624D01*
X130021782Y-65751095D01*
X130223870Y-65816757D01*
X130433754Y-65850000D01*
X130646246Y-65850000D01*
X130856127Y-65816757D01*
X130856130Y-65816757D01*
X131058217Y-65751095D01*
X131247554Y-65654622D01*
X131301716Y-65615270D01*
X131301717Y-65615270D01*
X130669408Y-64982962D01*
X130732993Y-64965925D01*
X130847007Y-64900099D01*
X130940099Y-64807007D01*
X131005925Y-64692993D01*
X131022962Y-64629409D01*
X131655270Y-65261717D01*
X131655270Y-65261716D01*
X131694622Y-65207554D01*
X131791095Y-65018217D01*
X131856757Y-64816130D01*
X131856757Y-64816127D01*
X131890000Y-64606246D01*
X131890000Y-64393753D01*
X131856757Y-64183872D01*
X131856757Y-64183869D01*
X131791095Y-63981782D01*
X131694624Y-63792449D01*
X131655270Y-63738282D01*
X131655269Y-63738282D01*
X131022962Y-64370590D01*
X131005925Y-64307007D01*
X130940099Y-64192993D01*
X130847007Y-64099901D01*
X130732993Y-64034075D01*
X130669409Y-64017037D01*
X131301716Y-63384728D01*
X131247550Y-63345375D01*
X131058217Y-63248904D01*
X130856129Y-63183242D01*
X130646246Y-63150000D01*
X130433754Y-63150000D01*
X130223872Y-63183242D01*
X130223869Y-63183242D01*
X130021782Y-63248904D01*
X129832439Y-63345380D01*
X129778282Y-63384727D01*
X129778282Y-63384728D01*
X130410591Y-64017037D01*
X130347007Y-64034075D01*
X130232993Y-64099901D01*
X130139901Y-64192993D01*
X130074075Y-64307007D01*
X130057037Y-64370591D01*
X129386818Y-63700372D01*
X129353333Y-63639049D01*
X129353330Y-63639036D01*
X129350499Y-63626015D01*
X129350499Y-63602128D01*
X129344091Y-63542517D01*
X129308791Y-63447872D01*
X129293798Y-63407673D01*
X129293793Y-63407664D01*
X129207547Y-63292455D01*
X129207544Y-63292452D01*
X129092335Y-63206206D01*
X129092328Y-63206202D01*
X128957482Y-63155908D01*
X128957483Y-63155908D01*
X128897883Y-63149501D01*
X128897881Y-63149500D01*
X128897873Y-63149500D01*
X128897864Y-63149500D01*
X127102129Y-63149500D01*
X127102123Y-63149501D01*
X127042516Y-63155908D01*
X126907671Y-63206202D01*
X126907664Y-63206206D01*
X126792455Y-63292452D01*
X126792452Y-63292455D01*
X126706206Y-63407664D01*
X126706202Y-63407671D01*
X126655908Y-63542517D01*
X126649501Y-63602116D01*
X126649500Y-63602135D01*
X115894699Y-63602135D01*
X116910206Y-62586628D01*
X116910211Y-62586624D01*
X116920414Y-62576420D01*
X116920416Y-62576420D01*
X117032220Y-62464616D01*
X117102821Y-62342331D01*
X117111277Y-62327685D01*
X117123299Y-62282817D01*
X117159662Y-62223160D01*
X117222509Y-62192630D01*
X117291885Y-62200924D01*
G37*
%TD.AperFunction*%
%TA.AperFunction,Conductor*%
G36*
X139455701Y-53455382D02*
G01*
X139462180Y-53461415D01*
X141072240Y-55071475D01*
X141072250Y-55071486D01*
X141076580Y-55075816D01*
X141076581Y-55075817D01*
X141188385Y-55187621D01*
X141188387Y-55187622D01*
X141188391Y-55187625D01*
X141325314Y-55266677D01*
X141328991Y-55268200D01*
X141369224Y-55295082D01*
X141403028Y-55328887D01*
X141403032Y-55328890D01*
X141534135Y-55416491D01*
X141534148Y-55416498D01*
X141679819Y-55476836D01*
X141679824Y-55476838D01*
X141834474Y-55507600D01*
X141834477Y-55507601D01*
X141834479Y-55507601D01*
X141992165Y-55507601D01*
X141992166Y-55507600D01*
X142146818Y-55476838D01*
X142292500Y-55416495D01*
X142423610Y-55328890D01*
X142531109Y-55221390D01*
X142592430Y-55187907D01*
X142662122Y-55192891D01*
X142706470Y-55221392D01*
X143799452Y-56314374D01*
X143799462Y-56314385D01*
X143803792Y-56318715D01*
X143803793Y-56318716D01*
X143915597Y-56430520D01*
X143977923Y-56466503D01*
X144002408Y-56480639D01*
X144002410Y-56480641D01*
X144034006Y-56498883D01*
X144052528Y-56509577D01*
X144205256Y-56550500D01*
X151325500Y-56550500D01*
X151392539Y-56570185D01*
X151438294Y-56622989D01*
X151449500Y-56674500D01*
X151449500Y-57047869D01*
X151449501Y-57047876D01*
X151455908Y-57107483D01*
X151483577Y-57181667D01*
X151488561Y-57251358D01*
X151483577Y-57268331D01*
X151455910Y-57342511D01*
X151455909Y-57342515D01*
X151455909Y-57342517D01*
X151449500Y-57402127D01*
X151449500Y-57402134D01*
X151449500Y-57402135D01*
X151449500Y-57897870D01*
X151449501Y-57897876D01*
X151455908Y-57957483D01*
X151483577Y-58031667D01*
X151488561Y-58101358D01*
X151483577Y-58118331D01*
X151455910Y-58192511D01*
X151455909Y-58192515D01*
X151455909Y-58192517D01*
X151449500Y-58252127D01*
X151449500Y-58252134D01*
X151449500Y-58252135D01*
X151449500Y-58747870D01*
X151449501Y-58747876D01*
X151455908Y-58807483D01*
X151483577Y-58881667D01*
X151488561Y-58951358D01*
X151483577Y-58968331D01*
X151455910Y-59042511D01*
X151455909Y-59042515D01*
X151455909Y-59042517D01*
X151449500Y-59102127D01*
X151449500Y-59345195D01*
X151449501Y-59475500D01*
X151429817Y-59542539D01*
X151377013Y-59588294D01*
X151325501Y-59599500D01*
X150670641Y-59599500D01*
X150646723Y-59605908D01*
X150646724Y-59605909D01*
X150517914Y-59640423D01*
X150517909Y-59640426D01*
X150380990Y-59719475D01*
X150380982Y-59719481D01*
X150322721Y-59777743D01*
X150269180Y-59831284D01*
X150269178Y-59831286D01*
X149357947Y-60742518D01*
X148470784Y-61629681D01*
X148409461Y-61663166D01*
X148383103Y-61666000D01*
X141398640Y-61666000D01*
X141357719Y-61676964D01*
X141357719Y-61676965D01*
X141320451Y-61686951D01*
X141245914Y-61706923D01*
X141245913Y-61706924D01*
X141233854Y-61713887D01*
X141171854Y-61730500D01*
X141134355Y-61730500D01*
X140979710Y-61761261D01*
X140979698Y-61761264D01*
X140834027Y-61821602D01*
X140834019Y-61821607D01*
X140702914Y-61909208D01*
X140702910Y-61909211D01*
X140697069Y-61915052D01*
X140635742Y-61948531D01*
X140573408Y-61946025D01*
X140567595Y-61944262D01*
X140412945Y-61913500D01*
X140412942Y-61913500D01*
X140255258Y-61913500D01*
X140255255Y-61913500D01*
X140100610Y-61944261D01*
X140100598Y-61944264D01*
X139954927Y-62004602D01*
X139954914Y-62004609D01*
X139823811Y-62092210D01*
X139823807Y-62092213D01*
X139712313Y-62203707D01*
X139712310Y-62203711D01*
X139624709Y-62334814D01*
X139624702Y-62334827D01*
X139564364Y-62480498D01*
X139564361Y-62480510D01*
X139533600Y-62635153D01*
X139533600Y-62792846D01*
X139564361Y-62947489D01*
X139564364Y-62947501D01*
X139624702Y-63093172D01*
X139624709Y-63093185D01*
X139712310Y-63224288D01*
X139712313Y-63224292D01*
X139823807Y-63335786D01*
X139823811Y-63335789D01*
X139954914Y-63423390D01*
X139954927Y-63423397D01*
X140100598Y-63483735D01*
X140100603Y-63483737D01*
X140165247Y-63496595D01*
X140255949Y-63514638D01*
X140317860Y-63547023D01*
X140319437Y-63548572D01*
X141251384Y-64480520D01*
X141251386Y-64480521D01*
X141251390Y-64480524D01*
X141388309Y-64559573D01*
X141388312Y-64559575D01*
X141388316Y-64559577D01*
X141541043Y-64600501D01*
X141541045Y-64600501D01*
X141706754Y-64600501D01*
X141706770Y-64600500D01*
X151328153Y-64600500D01*
X151395192Y-64620185D01*
X151440947Y-64672989D01*
X151448037Y-64692816D01*
X151487812Y-64843316D01*
X151487020Y-64872369D01*
X151489094Y-64901359D01*
X151485938Y-64912104D01*
X151485910Y-64913160D01*
X151485415Y-64913884D01*
X151484110Y-64918332D01*
X151456403Y-64992617D01*
X151456401Y-64992627D01*
X151450000Y-65052155D01*
X151450000Y-65100000D01*
X152150000Y-65100000D01*
X152150000Y-64672800D01*
X152152550Y-64664114D01*
X152151262Y-64655153D01*
X152162240Y-64631112D01*
X152169685Y-64605761D01*
X152176525Y-64599833D01*
X152180287Y-64591597D01*
X152202521Y-64577307D01*
X152222489Y-64560006D01*
X152233003Y-64557718D01*
X152239065Y-64553823D01*
X152274000Y-64548800D01*
X152426000Y-64548800D01*
X152493039Y-64568485D01*
X152538794Y-64621289D01*
X152550000Y-64672800D01*
X152550000Y-65100000D01*
X153250000Y-65100000D01*
X153250000Y-65052172D01*
X153249999Y-65052155D01*
X153243598Y-64992628D01*
X153215888Y-64918334D01*
X153210653Y-64849822D01*
X153252583Y-64647622D01*
X153263282Y-64627566D01*
X153269685Y-64605761D01*
X153279411Y-64597333D01*
X153285470Y-64585976D01*
X153305313Y-64574888D01*
X153322489Y-64560006D01*
X153337981Y-64556635D01*
X153346464Y-64551896D01*
X153356827Y-64552535D01*
X153374000Y-64548800D01*
X154795500Y-64548800D01*
X154862539Y-64568485D01*
X154908294Y-64621289D01*
X154919500Y-64672800D01*
X154919500Y-65333333D01*
X154899815Y-65400372D01*
X154883181Y-65421014D01*
X154869887Y-65434307D01*
X154869881Y-65434315D01*
X154787505Y-65573606D01*
X154787504Y-65573609D01*
X154742357Y-65729002D01*
X154742356Y-65729008D01*
X154739500Y-65765302D01*
X154739500Y-66234697D01*
X154742356Y-66270991D01*
X154742357Y-66270994D01*
X154755899Y-66317604D01*
X154755700Y-66387474D01*
X154717758Y-66446144D01*
X154654120Y-66474988D01*
X154636823Y-66476200D01*
X136676597Y-66476200D01*
X136609558Y-66456515D01*
X136588916Y-66439881D01*
X136362019Y-66212984D01*
X136328534Y-66151661D01*
X136328355Y-66150000D01*
X139600000Y-66150000D01*
X140050000Y-66150000D01*
X140450000Y-66150000D01*
X140900000Y-66150000D01*
X141300000Y-66150000D01*
X141750000Y-66150000D01*
X142150000Y-66150000D01*
X142600000Y-66150000D01*
X143000000Y-66150000D01*
X143450000Y-66150000D01*
X143850000Y-66150000D01*
X144300000Y-66150000D01*
X144700000Y-66150000D01*
X145150000Y-66150000D01*
X145550000Y-66150000D01*
X146000000Y-66150000D01*
X146400000Y-66150000D01*
X146850000Y-66150000D01*
X147250000Y-66150000D01*
X147700000Y-66150000D01*
X148100000Y-66150000D01*
X148550000Y-66150000D01*
X148950000Y-66150000D01*
X149400000Y-66150000D01*
X149800000Y-66150000D01*
X150250000Y-66150000D01*
X150650000Y-66150000D01*
X151100000Y-66150000D01*
X151100000Y-66100000D01*
X151500000Y-66100000D01*
X152100000Y-66100000D01*
X152600000Y-66100000D01*
X153250000Y-66100000D01*
X153250000Y-65902172D01*
X153249999Y-65902155D01*
X153243598Y-65842628D01*
X153215888Y-65768334D01*
X153210904Y-65698642D01*
X153215888Y-65681666D01*
X153243598Y-65607371D01*
X153249999Y-65547844D01*
X153250000Y-65547827D01*
X153250000Y-65500000D01*
X152600000Y-65500000D01*
X152600000Y-66100000D01*
X152100000Y-66100000D01*
X152100000Y-65500000D01*
X151500000Y-65500000D01*
X151500000Y-66100000D01*
X151100000Y-66100000D01*
X151100000Y-65450000D01*
X151052155Y-65450000D01*
X150992627Y-65456401D01*
X150992617Y-65456403D01*
X150918332Y-65484110D01*
X150848641Y-65489094D01*
X150831668Y-65484110D01*
X150757382Y-65456403D01*
X150757372Y-65456401D01*
X150697844Y-65450000D01*
X150650000Y-65450000D01*
X150650000Y-66150000D01*
X150250000Y-66150000D01*
X150250000Y-65450000D01*
X150202155Y-65450000D01*
X150142627Y-65456401D01*
X150142617Y-65456403D01*
X150068332Y-65484110D01*
X149998641Y-65489094D01*
X149981668Y-65484110D01*
X149907382Y-65456403D01*
X149907372Y-65456401D01*
X149847844Y-65450000D01*
X149800000Y-65450000D01*
X149800000Y-66150000D01*
X149400000Y-66150000D01*
X149400000Y-65450000D01*
X149352155Y-65450000D01*
X149292627Y-65456401D01*
X149292617Y-65456403D01*
X149218332Y-65484110D01*
X149148641Y-65489094D01*
X149131668Y-65484110D01*
X149057382Y-65456403D01*
X149057372Y-65456401D01*
X148997844Y-65450000D01*
X148950000Y-65450000D01*
X148950000Y-66150000D01*
X148550000Y-66150000D01*
X148550000Y-65450000D01*
X148502155Y-65450000D01*
X148442627Y-65456401D01*
X148442617Y-65456403D01*
X148368332Y-65484110D01*
X148298641Y-65489094D01*
X148281668Y-65484110D01*
X148207382Y-65456403D01*
X148207372Y-65456401D01*
X148147844Y-65450000D01*
X148100000Y-65450000D01*
X148100000Y-66150000D01*
X147700000Y-66150000D01*
X147700000Y-65450000D01*
X147652155Y-65450000D01*
X147592627Y-65456401D01*
X147592617Y-65456403D01*
X147518332Y-65484110D01*
X147448641Y-65489094D01*
X147431668Y-65484110D01*
X147357382Y-65456403D01*
X147357372Y-65456401D01*
X147297844Y-65450000D01*
X147250000Y-65450000D01*
X147250000Y-66150000D01*
X146850000Y-66150000D01*
X146850000Y-65450000D01*
X146802155Y-65450000D01*
X146742627Y-65456401D01*
X146742617Y-65456403D01*
X146668332Y-65484110D01*
X146598641Y-65489094D01*
X146581668Y-65484110D01*
X146507382Y-65456403D01*
X146507372Y-65456401D01*
X146447844Y-65450000D01*
X146400000Y-65450000D01*
X146400000Y-66150000D01*
X146000000Y-66150000D01*
X146000000Y-65450000D01*
X145952155Y-65450000D01*
X145892627Y-65456401D01*
X145892617Y-65456403D01*
X145818332Y-65484110D01*
X145748641Y-65489094D01*
X145731668Y-65484110D01*
X145657382Y-65456403D01*
X145657372Y-65456401D01*
X145597844Y-65450000D01*
X145550000Y-65450000D01*
X145550000Y-66150000D01*
X145150000Y-66150000D01*
X145150000Y-65450000D01*
X145102155Y-65450000D01*
X145042627Y-65456401D01*
X145042617Y-65456403D01*
X144968332Y-65484110D01*
X144898641Y-65489094D01*
X144881668Y-65484110D01*
X144807382Y-65456403D01*
X144807372Y-65456401D01*
X144747844Y-65450000D01*
X144700000Y-65450000D01*
X144700000Y-66150000D01*
X144300000Y-66150000D01*
X144300000Y-65450000D01*
X144252155Y-65450000D01*
X144192627Y-65456401D01*
X144192617Y-65456403D01*
X144118332Y-65484110D01*
X144048641Y-65489094D01*
X144031668Y-65484110D01*
X143957382Y-65456403D01*
X143957372Y-65456401D01*
X143897844Y-65450000D01*
X143850000Y-65450000D01*
X143850000Y-66150000D01*
X143450000Y-66150000D01*
X143450000Y-65450000D01*
X143402155Y-65450000D01*
X143342627Y-65456401D01*
X143342617Y-65456403D01*
X143268332Y-65484110D01*
X143198641Y-65489094D01*
X143181668Y-65484110D01*
X143107382Y-65456403D01*
X143107372Y-65456401D01*
X143047844Y-65450000D01*
X143000000Y-65450000D01*
X143000000Y-66150000D01*
X142600000Y-66150000D01*
X142600000Y-65450000D01*
X142552155Y-65450000D01*
X142492627Y-65456401D01*
X142492617Y-65456403D01*
X142418332Y-65484110D01*
X142348641Y-65489094D01*
X142331668Y-65484110D01*
X142257382Y-65456403D01*
X142257372Y-65456401D01*
X142197844Y-65450000D01*
X142150000Y-65450000D01*
X142150000Y-66150000D01*
X141750000Y-66150000D01*
X141750000Y-65450000D01*
X141702155Y-65450000D01*
X141642627Y-65456401D01*
X141642617Y-65456403D01*
X141568332Y-65484110D01*
X141498641Y-65489094D01*
X141481668Y-65484110D01*
X141407382Y-65456403D01*
X141407372Y-65456401D01*
X141347844Y-65450000D01*
X141300000Y-65450000D01*
X141300000Y-66150000D01*
X140900000Y-66150000D01*
X140900000Y-65450000D01*
X140852155Y-65450000D01*
X140792627Y-65456401D01*
X140792617Y-65456403D01*
X140718332Y-65484110D01*
X140648641Y-65489094D01*
X140631668Y-65484110D01*
X140557382Y-65456403D01*
X140557372Y-65456401D01*
X140497844Y-65450000D01*
X140450000Y-65450000D01*
X140450000Y-66150000D01*
X140050000Y-66150000D01*
X140050000Y-65450000D01*
X140002155Y-65450000D01*
X139942627Y-65456401D01*
X139942617Y-65456403D01*
X139868332Y-65484110D01*
X139798641Y-65489094D01*
X139781668Y-65484110D01*
X139707382Y-65456403D01*
X139707372Y-65456401D01*
X139647844Y-65450000D01*
X139600000Y-65450000D01*
X139600000Y-66150000D01*
X136328355Y-66150000D01*
X136325700Y-66125303D01*
X136325700Y-65739865D01*
X136330766Y-65722611D01*
X136330812Y-65704627D01*
X136344808Y-65674788D01*
X136345385Y-65672826D01*
X136345556Y-65672560D01*
X136346904Y-65670473D01*
X136346989Y-65670389D01*
X136434594Y-65539279D01*
X136439774Y-65526771D01*
X136445883Y-65517320D01*
X136464156Y-65501567D01*
X136479296Y-65482776D01*
X136490144Y-65479163D01*
X136498803Y-65471700D01*
X136522690Y-65468327D01*
X136545588Y-65460704D01*
X136556668Y-65463530D01*
X136567987Y-65461933D01*
X136589909Y-65472011D01*
X136613289Y-65477977D01*
X136628381Y-65489700D01*
X136631468Y-65491119D01*
X136632709Y-65493061D01*
X136637708Y-65496944D01*
X136921284Y-65780520D01*
X136921286Y-65780521D01*
X136921290Y-65780524D01*
X137042492Y-65850499D01*
X137058216Y-65859577D01*
X137210943Y-65900501D01*
X137210945Y-65900501D01*
X137326000Y-65900501D01*
X137393039Y-65920186D01*
X137438794Y-65972990D01*
X137450000Y-66024501D01*
X137450000Y-66100000D01*
X139200000Y-66100000D01*
X139200000Y-65748068D01*
X139207817Y-65704737D01*
X139244091Y-65607483D01*
X139250500Y-65547873D01*
X139250499Y-65299643D01*
X139250499Y-65052130D01*
X139250498Y-65052123D01*
X139248937Y-65037603D01*
X139244091Y-64992517D01*
X139216421Y-64918332D01*
X139211438Y-64848642D01*
X139216420Y-64831672D01*
X139244091Y-64757483D01*
X139250500Y-64697873D01*
X139250499Y-64202128D01*
X139244091Y-64142517D01*
X139216154Y-64067616D01*
X139211171Y-63997927D01*
X139216156Y-63980950D01*
X139243597Y-63907379D01*
X139243597Y-63907377D01*
X139249999Y-63847844D01*
X139250000Y-63847827D01*
X139250000Y-63800000D01*
X138998069Y-63800000D01*
X138954736Y-63792182D01*
X138857482Y-63755908D01*
X138857483Y-63755908D01*
X138797883Y-63749501D01*
X138797881Y-63749500D01*
X138797873Y-63749500D01*
X138797865Y-63749500D01*
X137902129Y-63749500D01*
X137902123Y-63749501D01*
X137842516Y-63755908D01*
X137745264Y-63792182D01*
X137701931Y-63800000D01*
X137424382Y-63800000D01*
X137419473Y-63802680D01*
X137392215Y-63800727D01*
X137364935Y-63802264D01*
X137357874Y-63798268D01*
X137349782Y-63797689D01*
X137327910Y-63781312D01*
X137307918Y-63770000D01*
X136998352Y-63770000D01*
X136935233Y-63752732D01*
X136926395Y-63747506D01*
X136926393Y-63747505D01*
X136926389Y-63747503D01*
X136770997Y-63702357D01*
X136770991Y-63702356D01*
X136734697Y-63699500D01*
X136734690Y-63699500D01*
X136624000Y-63699500D01*
X136615314Y-63696949D01*
X136606353Y-63698238D01*
X136582312Y-63687259D01*
X136556961Y-63679815D01*
X136551033Y-63672974D01*
X136542797Y-63669213D01*
X136528507Y-63646978D01*
X136511206Y-63627011D01*
X136508918Y-63616496D01*
X136505023Y-63610435D01*
X136500000Y-63575500D01*
X136500000Y-63394000D01*
X136519685Y-63326961D01*
X136572489Y-63281206D01*
X136624000Y-63270000D01*
X136735702Y-63270000D01*
X136802741Y-63289685D01*
X136804534Y-63290858D01*
X136855621Y-63324994D01*
X136855623Y-63324995D01*
X136855627Y-63324997D01*
X136999830Y-63384727D01*
X137001303Y-63385337D01*
X137113548Y-63407664D01*
X137155953Y-63416099D01*
X137155956Y-63416100D01*
X137155958Y-63416100D01*
X137313643Y-63416100D01*
X137358133Y-63407250D01*
X137382602Y-63402382D01*
X137406793Y-63400000D01*
X138150000Y-63400000D01*
X138550000Y-63400000D01*
X139250000Y-63400000D01*
X139250000Y-63352172D01*
X139249999Y-63352155D01*
X139243598Y-63292628D01*
X139215888Y-63218334D01*
X139210904Y-63148642D01*
X139215888Y-63131666D01*
X139243598Y-63057371D01*
X139249999Y-62997844D01*
X139250000Y-62997827D01*
X139250000Y-62950000D01*
X138550000Y-62950000D01*
X138550000Y-63400000D01*
X138150000Y-63400000D01*
X138150000Y-62874000D01*
X138169685Y-62806961D01*
X138222489Y-62761206D01*
X138274000Y-62750000D01*
X138350000Y-62750000D01*
X138350000Y-62724499D01*
X138369685Y-62657460D01*
X138422489Y-62611705D01*
X138474000Y-62600499D01*
X138797871Y-62600499D01*
X138797872Y-62600499D01*
X138857483Y-62594091D01*
X138954736Y-62557817D01*
X138998069Y-62550000D01*
X139250000Y-62550000D01*
X139250000Y-62502172D01*
X139249999Y-62502155D01*
X139243598Y-62442623D01*
X139216155Y-62369047D01*
X139211171Y-62299355D01*
X139216148Y-62282399D01*
X139244091Y-62207483D01*
X139250500Y-62147873D01*
X139250499Y-61652128D01*
X139244091Y-61592517D01*
X139216421Y-61518332D01*
X139211438Y-61448642D01*
X139216422Y-61431667D01*
X139244091Y-61357483D01*
X139250500Y-61297873D01*
X139250499Y-60802128D01*
X139244091Y-60742517D01*
X139216421Y-60668332D01*
X139211438Y-60598642D01*
X139216420Y-60581672D01*
X139244091Y-60507483D01*
X139250500Y-60447873D01*
X139250499Y-59952128D01*
X139244091Y-59892517D01*
X139216421Y-59818332D01*
X139211438Y-59748642D01*
X139216420Y-59731672D01*
X139244091Y-59657483D01*
X139250500Y-59597873D01*
X139250499Y-59102128D01*
X139244091Y-59042517D01*
X139216421Y-58968332D01*
X139211438Y-58898642D01*
X139216422Y-58881667D01*
X139244091Y-58807483D01*
X139250500Y-58747873D01*
X139250499Y-58252128D01*
X139244091Y-58192517D01*
X139216421Y-58118332D01*
X139211438Y-58048642D01*
X139216422Y-58031667D01*
X139244091Y-57957483D01*
X139250500Y-57897873D01*
X139250499Y-57402128D01*
X139244091Y-57342517D01*
X139216421Y-57268332D01*
X139211438Y-57198642D01*
X139216422Y-57181667D01*
X139244091Y-57107483D01*
X139250500Y-57047873D01*
X139250499Y-56552128D01*
X139244091Y-56492517D01*
X139216421Y-56418332D01*
X139211438Y-56348642D01*
X139216422Y-56331667D01*
X139244091Y-56257483D01*
X139250500Y-56197873D01*
X139250499Y-55702128D01*
X139244091Y-55642517D01*
X139216421Y-55568332D01*
X139211438Y-55498642D01*
X139216422Y-55481667D01*
X139244091Y-55407483D01*
X139250500Y-55347873D01*
X139250499Y-54852128D01*
X139244091Y-54792517D01*
X139216421Y-54718332D01*
X139211438Y-54648642D01*
X139216422Y-54631667D01*
X139244091Y-54557483D01*
X139250500Y-54497873D01*
X139250499Y-54002128D01*
X139244091Y-53942517D01*
X139216421Y-53868332D01*
X139211438Y-53798642D01*
X139216422Y-53781667D01*
X139244091Y-53707483D01*
X139250500Y-53647873D01*
X139250499Y-53549094D01*
X139270183Y-53482058D01*
X139322986Y-53436302D01*
X139392145Y-53426358D01*
X139455701Y-53455382D01*
G37*
%TD.AperFunction*%
%TA.AperFunction,Conductor*%
G36*
X156673039Y-63799685D02*
G01*
X156718794Y-63852489D01*
X156730000Y-63904000D01*
X156730000Y-64555800D01*
X156813107Y-64582252D01*
X156841096Y-64601144D01*
X156869444Y-64619477D01*
X156869967Y-64620632D01*
X156871019Y-64621342D01*
X156884340Y-64652342D01*
X156898288Y-64683115D01*
X156898429Y-64685129D01*
X156898604Y-64685536D01*
X156898500Y-64686153D01*
X156899500Y-64700412D01*
X156899500Y-65079585D01*
X156879815Y-65146624D01*
X156827011Y-65192379D01*
X156757853Y-65202323D01*
X156740905Y-65198662D01*
X156730000Y-65195494D01*
X156730000Y-65827001D01*
X156721356Y-65856437D01*
X156714833Y-65886427D01*
X156711077Y-65891443D01*
X156710315Y-65894040D01*
X156693682Y-65914681D01*
X156644684Y-65963680D01*
X156583361Y-65997166D01*
X156557002Y-66000000D01*
X156424500Y-66000000D01*
X156357461Y-65980315D01*
X156311706Y-65927511D01*
X156300500Y-65876000D01*
X156300500Y-65765317D01*
X156300499Y-65765302D01*
X156298691Y-65742331D01*
X156297643Y-65729007D01*
X156294769Y-65719116D01*
X156252495Y-65573608D01*
X156252492Y-65573600D01*
X156247266Y-65564763D01*
X156230000Y-65501645D01*
X156230000Y-65195494D01*
X156210738Y-65181032D01*
X156209219Y-65181028D01*
X156150551Y-65143082D01*
X156121711Y-65079442D01*
X156120500Y-65062153D01*
X156120500Y-64717845D01*
X156140185Y-64650806D01*
X156192989Y-64605051D01*
X156204919Y-64603335D01*
X156230000Y-64584504D01*
X156230000Y-64278352D01*
X156247267Y-64215233D01*
X156252494Y-64206395D01*
X156253734Y-64202129D01*
X156297642Y-64050997D01*
X156297643Y-64050991D01*
X156299836Y-64023121D01*
X156300500Y-64014690D01*
X156300500Y-63904000D01*
X156303050Y-63895314D01*
X156301762Y-63886353D01*
X156312740Y-63862312D01*
X156320185Y-63836961D01*
X156327025Y-63831033D01*
X156330787Y-63822797D01*
X156353021Y-63808507D01*
X156372989Y-63791206D01*
X156383503Y-63788918D01*
X156389565Y-63785023D01*
X156424500Y-63780000D01*
X156606000Y-63780000D01*
X156673039Y-63799685D01*
G37*
%TD.AperFunction*%
%TA.AperFunction,Conductor*%
G36*
X124104808Y-59209578D02*
G01*
X124128063Y-59211711D01*
X124137708Y-59219238D01*
X124149446Y-59222685D01*
X124164736Y-59240330D01*
X124183145Y-59254697D01*
X124192101Y-59271912D01*
X124195201Y-59275489D01*
X124198289Y-59283804D01*
X124199435Y-59286007D01*
X124200544Y-59289175D01*
X124237506Y-59416395D01*
X124256152Y-59447923D01*
X124260206Y-59459497D01*
X124263791Y-59529274D01*
X124249912Y-59563608D01*
X124237968Y-59583804D01*
X124195496Y-59730000D01*
X124501648Y-59730000D01*
X124511260Y-59732019D01*
X124517553Y-59731024D01*
X124534865Y-59736980D01*
X124551555Y-59740487D01*
X124558364Y-59743481D01*
X124573605Y-59752494D01*
X124589112Y-59756999D01*
X124596590Y-59760287D01*
X124617322Y-59777743D01*
X124640164Y-59792331D01*
X124643652Y-59799912D01*
X124650037Y-59805288D01*
X124658041Y-59831184D01*
X124669370Y-59855804D01*
X124668205Y-59864067D01*
X124670671Y-59872042D01*
X124663404Y-59898151D01*
X124659624Y-59924990D01*
X124654175Y-59931314D01*
X124651938Y-59939354D01*
X124631708Y-59957392D01*
X124614019Y-59977924D01*
X124606019Y-59980297D01*
X124599789Y-59985853D01*
X124573013Y-59990090D01*
X124547036Y-59997799D01*
X124546683Y-59997800D01*
X117667869Y-59997800D01*
X117667853Y-59997799D01*
X117660257Y-59997799D01*
X117502143Y-59997799D01*
X117394787Y-60026565D01*
X117349410Y-60038724D01*
X117349409Y-60038725D01*
X117299296Y-60067659D01*
X117299295Y-60067660D01*
X117255889Y-60092720D01*
X117212485Y-60117779D01*
X117212482Y-60117781D01*
X117100678Y-60229586D01*
X116785359Y-60544904D01*
X116724036Y-60578389D01*
X116654344Y-60573405D01*
X116609997Y-60544904D01*
X116607549Y-60542456D01*
X116560831Y-60507483D01*
X116492331Y-60456204D01*
X116492329Y-60456203D01*
X116492328Y-60456202D01*
X116357486Y-60405910D01*
X116357485Y-60405909D01*
X116357483Y-60405909D01*
X116297873Y-60399500D01*
X116297863Y-60399500D01*
X115552129Y-60399500D01*
X115552123Y-60399501D01*
X115492516Y-60405908D01*
X115357671Y-60456202D01*
X115357664Y-60456206D01*
X115242455Y-60542452D01*
X115242452Y-60542455D01*
X115156206Y-60657664D01*
X115156202Y-60657671D01*
X115105908Y-60792517D01*
X115099501Y-60852116D01*
X115099500Y-60852135D01*
X115099500Y-61997870D01*
X115099501Y-61997876D01*
X115105908Y-62057483D01*
X115156202Y-62192328D01*
X115156206Y-62192335D01*
X115242452Y-62307544D01*
X115242453Y-62307545D01*
X115242454Y-62307546D01*
X115269930Y-62328115D01*
X115311802Y-62384047D01*
X115316786Y-62453738D01*
X115283302Y-62515062D01*
X115283301Y-62515062D01*
X114575386Y-63222977D01*
X114514063Y-63256462D01*
X114444371Y-63251478D01*
X114424587Y-63242030D01*
X114399393Y-63227131D01*
X114399388Y-63227129D01*
X114245208Y-63182335D01*
X114245202Y-63182334D01*
X114209181Y-63179500D01*
X113810830Y-63179500D01*
X113810808Y-63179501D01*
X113774794Y-63182335D01*
X113620611Y-63227129D01*
X113620604Y-63227132D01*
X113563119Y-63261128D01*
X113495395Y-63278309D01*
X113436881Y-63261128D01*
X113379395Y-63227132D01*
X113379388Y-63227129D01*
X113225208Y-63182335D01*
X113225202Y-63182334D01*
X113189181Y-63179500D01*
X112790830Y-63179500D01*
X112790808Y-63179501D01*
X112754794Y-63182335D01*
X112600611Y-63227129D01*
X112600606Y-63227131D01*
X112462404Y-63308863D01*
X112462400Y-63308866D01*
X112446274Y-63324993D01*
X112408084Y-63363182D01*
X112381153Y-63377888D01*
X112355340Y-63394477D01*
X112349140Y-63395368D01*
X112346764Y-63396666D01*
X112320405Y-63399500D01*
X112203370Y-63399500D01*
X112203354Y-63399499D01*
X112195758Y-63399499D01*
X112165097Y-63399499D01*
X112098058Y-63379814D01*
X112077416Y-63363180D01*
X111801818Y-63087582D01*
X111787114Y-63060654D01*
X111770522Y-63034836D01*
X111769630Y-63028635D01*
X111768333Y-63026259D01*
X111765499Y-62999901D01*
X111765499Y-62848399D01*
X111785184Y-62781360D01*
X111801818Y-62760718D01*
X111838037Y-62724499D01*
X111895520Y-62667016D01*
X111895520Y-62667014D01*
X111905724Y-62656811D01*
X111905728Y-62656806D01*
X112229881Y-62332652D01*
X112240212Y-62326178D01*
X112245534Y-62319398D01*
X112269788Y-62307643D01*
X112276888Y-62303195D01*
X112279887Y-62302153D01*
X112416395Y-62262494D01*
X112448076Y-62243757D01*
X112459818Y-62239681D01*
X112482790Y-62238564D01*
X112505088Y-62232906D01*
X112518453Y-62236830D01*
X112529606Y-62236288D01*
X112543121Y-62244073D01*
X112563613Y-62250090D01*
X112583803Y-62262031D01*
X112730000Y-62304504D01*
X112730000Y-62304503D01*
X113230000Y-62304503D01*
X113376195Y-62262031D01*
X113515374Y-62179721D01*
X113515383Y-62179714D01*
X113629714Y-62065383D01*
X113629721Y-62065374D01*
X113712031Y-61926195D01*
X113712033Y-61926190D01*
X113757144Y-61770918D01*
X113757145Y-61770912D01*
X113758790Y-61750000D01*
X113230000Y-61750000D01*
X113230000Y-62304503D01*
X112730000Y-62304503D01*
X112730000Y-61998352D01*
X112747267Y-61935233D01*
X112752494Y-61926395D01*
X112755790Y-61915052D01*
X112797642Y-61770997D01*
X112797643Y-61770991D01*
X112797649Y-61770912D01*
X112800500Y-61734690D01*
X112800500Y-61624000D01*
X112820185Y-61556961D01*
X112872989Y-61511206D01*
X112924500Y-61500000D01*
X112980000Y-61500000D01*
X112980000Y-61440597D01*
X112988644Y-61411156D01*
X112995168Y-61381170D01*
X112998922Y-61376154D01*
X112999685Y-61373558D01*
X113016319Y-61352916D01*
X113082916Y-61286319D01*
X113144239Y-61252834D01*
X113170597Y-61250000D01*
X113758790Y-61250000D01*
X113757145Y-61229089D01*
X113712031Y-61073804D01*
X113629721Y-60934625D01*
X113629714Y-60934616D01*
X113619847Y-60924749D01*
X113586362Y-60863426D01*
X113591346Y-60793734D01*
X113619844Y-60749390D01*
X115129917Y-59239319D01*
X115191240Y-59205834D01*
X115217598Y-59203000D01*
X117175943Y-59203000D01*
X117334057Y-59203000D01*
X124082407Y-59203000D01*
X124104808Y-59209578D01*
G37*
%TD.AperFunction*%
%TA.AperFunction,Conductor*%
G36*
X131429938Y-59255185D02*
G01*
X131475693Y-59307989D01*
X131486899Y-59359500D01*
X131486899Y-59413954D01*
X131486898Y-59413954D01*
X131489992Y-59425500D01*
X131527823Y-59566685D01*
X131545824Y-59597864D01*
X131545828Y-59597870D01*
X131545829Y-59597873D01*
X131606875Y-59703609D01*
X131606881Y-59703617D01*
X131725749Y-59822485D01*
X131725755Y-59822490D01*
X131729946Y-59826681D01*
X131763431Y-59888004D01*
X131758447Y-59957696D01*
X131716575Y-60013629D01*
X131651111Y-60038046D01*
X131610172Y-60034137D01*
X131521147Y-60010283D01*
X131474557Y-59997799D01*
X131316443Y-59997799D01*
X131308847Y-59997799D01*
X131308831Y-59997800D01*
X125453317Y-59997800D01*
X125386278Y-59978115D01*
X125340523Y-59925311D01*
X125330579Y-59856153D01*
X125359604Y-59792597D01*
X125393423Y-59765224D01*
X125405489Y-59758567D01*
X125426395Y-59752494D01*
X125563654Y-59671319D01*
X125565277Y-59670424D01*
X125583929Y-59666282D01*
X125625171Y-59655000D01*
X128196163Y-59655000D01*
X128196164Y-59654998D01*
X128151658Y-59501808D01*
X128151656Y-59501805D01*
X128104827Y-59422621D01*
X128087644Y-59354897D01*
X128109804Y-59288635D01*
X128164270Y-59244871D01*
X128211559Y-59235500D01*
X131362899Y-59235500D01*
X131429938Y-59255185D01*
G37*
%TD.AperFunction*%
%TA.AperFunction,Conductor*%
G36*
X138293039Y-52268485D02*
G01*
X138338794Y-52321289D01*
X138350000Y-52372800D01*
X138350000Y-52476000D01*
X138330315Y-52543039D01*
X138277511Y-52588794D01*
X138226000Y-52600000D01*
X137450000Y-52600000D01*
X137450000Y-52797844D01*
X137456401Y-52857372D01*
X137456403Y-52857379D01*
X137483844Y-52930952D01*
X137488828Y-53000643D01*
X137483844Y-53017618D01*
X137456070Y-53092086D01*
X137455909Y-53092517D01*
X137449500Y-53152127D01*
X137449500Y-53152134D01*
X137449500Y-53152135D01*
X137449500Y-53647870D01*
X137449501Y-53647876D01*
X137455908Y-53707483D01*
X137483577Y-53781667D01*
X137488561Y-53851358D01*
X137483577Y-53868331D01*
X137455910Y-53942511D01*
X137455909Y-53942515D01*
X137455909Y-53942517D01*
X137449500Y-54002127D01*
X137449500Y-54002134D01*
X137449500Y-54002135D01*
X137449500Y-54497870D01*
X137449501Y-54497876D01*
X137455908Y-54557483D01*
X137483577Y-54631667D01*
X137488561Y-54701358D01*
X137483577Y-54718331D01*
X137455910Y-54792511D01*
X137455909Y-54792515D01*
X137455909Y-54792517D01*
X137449500Y-54852127D01*
X137449500Y-54852134D01*
X137449500Y-54852135D01*
X137449500Y-55347870D01*
X137449501Y-55347876D01*
X137455908Y-55407483D01*
X137483577Y-55481667D01*
X137488561Y-55551358D01*
X137483577Y-55568331D01*
X137455910Y-55642511D01*
X137455909Y-55642515D01*
X137455909Y-55642517D01*
X137449500Y-55702127D01*
X137449500Y-55702134D01*
X137449500Y-55702135D01*
X137449500Y-56197870D01*
X137449501Y-56197876D01*
X137455908Y-56257483D01*
X137483577Y-56331667D01*
X137488561Y-56401358D01*
X137483577Y-56418331D01*
X137455910Y-56492511D01*
X137455909Y-56492515D01*
X137455909Y-56492517D01*
X137449500Y-56552127D01*
X137449500Y-56552134D01*
X137449500Y-56552135D01*
X137449500Y-57047870D01*
X137449501Y-57047876D01*
X137455908Y-57107483D01*
X137483577Y-57181667D01*
X137488561Y-57251358D01*
X137483577Y-57268331D01*
X137455910Y-57342511D01*
X137455909Y-57342515D01*
X137455909Y-57342517D01*
X137449500Y-57402127D01*
X137449500Y-57402134D01*
X137449500Y-57402135D01*
X137449500Y-57897870D01*
X137449501Y-57897876D01*
X137455908Y-57957483D01*
X137483577Y-58031667D01*
X137488561Y-58101358D01*
X137483577Y-58118331D01*
X137455910Y-58192511D01*
X137455909Y-58192515D01*
X137455909Y-58192517D01*
X137449500Y-58252127D01*
X137449500Y-58252134D01*
X137449500Y-58252135D01*
X137449500Y-58747870D01*
X137449501Y-58747876D01*
X137455908Y-58807483D01*
X137483577Y-58881667D01*
X137488561Y-58951358D01*
X137483577Y-58968331D01*
X137455910Y-59042511D01*
X137455909Y-59042515D01*
X137455909Y-59042517D01*
X137449500Y-59102127D01*
X137449500Y-59102134D01*
X137449500Y-59102135D01*
X137449500Y-59385102D01*
X137429815Y-59452141D01*
X137377011Y-59497896D01*
X137307853Y-59507840D01*
X137244297Y-59478815D01*
X137237819Y-59472783D01*
X136038390Y-58273355D01*
X136038388Y-58273352D01*
X135919517Y-58154481D01*
X135919509Y-58154475D01*
X135811872Y-58092331D01*
X135811872Y-58092332D01*
X135782583Y-58075422D01*
X135726681Y-58060443D01*
X135629857Y-58034499D01*
X135471743Y-58034499D01*
X135464147Y-58034499D01*
X135464131Y-58034500D01*
X135422141Y-58034500D01*
X135355102Y-58014815D01*
X135309347Y-57962011D01*
X135299403Y-57892853D01*
X135315409Y-57847379D01*
X135324723Y-57831630D01*
X135362119Y-57768396D01*
X135407620Y-57611781D01*
X135410500Y-57575186D01*
X135410500Y-57154814D01*
X135407620Y-57118219D01*
X135404501Y-57107485D01*
X135369464Y-56986885D01*
X135362119Y-56961604D01*
X135279099Y-56821224D01*
X135279098Y-56821223D01*
X135279096Y-56821220D01*
X135275561Y-56817686D01*
X135242072Y-56756365D01*
X135247053Y-56686673D01*
X135275561Y-56642314D01*
X135279096Y-56638779D01*
X135279099Y-56638776D01*
X135362119Y-56498396D01*
X135407620Y-56341781D01*
X135410500Y-56305186D01*
X135410500Y-55884814D01*
X135407620Y-55848219D01*
X135407619Y-55848217D01*
X135407619Y-55848214D01*
X135372808Y-55728397D01*
X135362119Y-55691604D01*
X135279099Y-55551224D01*
X135279097Y-55551222D01*
X135279094Y-55551218D01*
X135163781Y-55435905D01*
X135163773Y-55435899D01*
X135023394Y-55352880D01*
X135023391Y-55352879D01*
X134866785Y-55307380D01*
X134866779Y-55307379D01*
X134830193Y-55304500D01*
X134830186Y-55304500D01*
X133445098Y-55304500D01*
X133378059Y-55284815D01*
X133357417Y-55268181D01*
X131651417Y-53562181D01*
X131617932Y-53500858D01*
X131622916Y-53431166D01*
X131664788Y-53375233D01*
X131730252Y-53350816D01*
X131739098Y-53350500D01*
X131886286Y-53350500D01*
X131886287Y-53350500D01*
X132096243Y-53317246D01*
X132298412Y-53251557D01*
X132351425Y-53224545D01*
X132420091Y-53211649D01*
X132484832Y-53237924D01*
X132522280Y-53287578D01*
X132557402Y-53372372D01*
X132557409Y-53372385D01*
X132645010Y-53503488D01*
X132645013Y-53503492D01*
X132756507Y-53614986D01*
X132756511Y-53614989D01*
X132887614Y-53702590D01*
X132887627Y-53702597D01*
X133030169Y-53761639D01*
X133033303Y-53762937D01*
X133170649Y-53790257D01*
X133187953Y-53793699D01*
X133187956Y-53793700D01*
X133187958Y-53793700D01*
X133345644Y-53793700D01*
X133345645Y-53793699D01*
X133473733Y-53768221D01*
X133500288Y-53762939D01*
X133500288Y-53762938D01*
X133500297Y-53762937D01*
X133503433Y-53761637D01*
X133550882Y-53752200D01*
X134710431Y-53752200D01*
X134710447Y-53752201D01*
X134718043Y-53752201D01*
X134876154Y-53752201D01*
X134876157Y-53752201D01*
X135028885Y-53711277D01*
X135079004Y-53682339D01*
X135165816Y-53632220D01*
X135277620Y-53520416D01*
X135277620Y-53520414D01*
X135287828Y-53510207D01*
X135287829Y-53510204D01*
X136512917Y-52285119D01*
X136574240Y-52251634D01*
X136600598Y-52248800D01*
X138226000Y-52248800D01*
X138293039Y-52268485D01*
G37*
%TD.AperFunction*%
%TA.AperFunction,Conductor*%
G36*
X125068583Y-55663050D02*
G01*
X125077542Y-55661762D01*
X125101582Y-55672739D01*
X125126938Y-55680185D01*
X125132864Y-55687024D01*
X125141098Y-55690784D01*
X125155388Y-55713018D01*
X125172693Y-55732989D01*
X125174979Y-55743500D01*
X125178875Y-55749561D01*
X125183899Y-55784496D01*
X125183899Y-55803357D01*
X125183899Y-55803358D01*
X125183900Y-55813355D01*
X125183900Y-56412630D01*
X125183899Y-56412648D01*
X125183899Y-56578354D01*
X125183898Y-56578354D01*
X125217469Y-56703642D01*
X125224823Y-56731085D01*
X125252396Y-56778842D01*
X125276863Y-56821220D01*
X125303879Y-56868014D01*
X125303881Y-56868017D01*
X125422749Y-56986885D01*
X125422754Y-56986889D01*
X125553181Y-57117317D01*
X125586666Y-57178639D01*
X125589500Y-57204997D01*
X125589500Y-57575193D01*
X125592379Y-57611779D01*
X125592380Y-57611785D01*
X125637879Y-57768391D01*
X125637880Y-57768394D01*
X125684591Y-57847379D01*
X125701774Y-57915104D01*
X125679614Y-57981366D01*
X125625147Y-58025129D01*
X125577859Y-58034500D01*
X125305942Y-58034500D01*
X125153214Y-58075423D01*
X125123930Y-58092331D01*
X125123928Y-58092332D01*
X125073895Y-58121218D01*
X125005995Y-58137689D01*
X124949897Y-58121218D01*
X124864404Y-58071860D01*
X124864404Y-58071859D01*
X124864400Y-58071858D01*
X124814285Y-58042923D01*
X124661557Y-58001999D01*
X124503443Y-58001999D01*
X124495847Y-58001999D01*
X124495831Y-58002000D01*
X120407356Y-58002000D01*
X120340317Y-57982315D01*
X120294562Y-57929511D01*
X120284618Y-57860353D01*
X120313643Y-57796797D01*
X120372421Y-57759023D01*
X120391168Y-57755061D01*
X120425617Y-57750526D01*
X120567135Y-57691908D01*
X120688659Y-57598659D01*
X120781908Y-57477135D01*
X120840526Y-57335617D01*
X120855500Y-57221880D01*
X120855500Y-56658120D01*
X120840526Y-56544383D01*
X120829099Y-56516796D01*
X120821631Y-56447332D01*
X120829101Y-56421892D01*
X120840038Y-56395487D01*
X120854999Y-56281856D01*
X120855000Y-56281842D01*
X120855000Y-56250000D01*
X120689907Y-56250000D01*
X120622868Y-56230315D01*
X120614420Y-56224375D01*
X120567135Y-56188091D01*
X120425620Y-56129475D01*
X120425618Y-56129474D01*
X120425617Y-56129474D01*
X120375977Y-56122938D01*
X120312082Y-56094672D01*
X120273611Y-56036348D01*
X120272780Y-55966483D01*
X120309852Y-55907260D01*
X120373058Y-55877481D01*
X120375961Y-55877063D01*
X120425617Y-55870526D01*
X120567135Y-55811908D01*
X120602859Y-55784496D01*
X120614420Y-55775625D01*
X120679589Y-55750430D01*
X120689907Y-55750000D01*
X120854999Y-55750000D01*
X120869340Y-55735658D01*
X120874684Y-55717461D01*
X120927488Y-55671706D01*
X120978999Y-55660500D01*
X125059899Y-55660500D01*
X125068583Y-55663050D01*
G37*
%TD.AperFunction*%
%TA.AperFunction,Conductor*%
G36*
X106988039Y-55519685D02*
G01*
X107033794Y-55572489D01*
X107045000Y-55624000D01*
X107045000Y-55625500D01*
X107025315Y-55692539D01*
X106972511Y-55738294D01*
X106921000Y-55749500D01*
X106272129Y-55749500D01*
X106272123Y-55749501D01*
X106212516Y-55755908D01*
X106175942Y-55769550D01*
X106106250Y-55774534D01*
X106044929Y-55741049D01*
X106015561Y-55711681D01*
X105982076Y-55650358D01*
X105987060Y-55580666D01*
X106028932Y-55524733D01*
X106094396Y-55500316D01*
X106103242Y-55500000D01*
X106921000Y-55500000D01*
X106988039Y-55519685D01*
G37*
%TD.AperFunction*%
%TA.AperFunction,Conductor*%
G36*
X128154142Y-49865385D02*
G01*
X128199897Y-49918189D01*
X128209841Y-49987347D01*
X128180816Y-50050903D01*
X128174787Y-50057377D01*
X127887215Y-50344949D01*
X127618483Y-50613681D01*
X127557160Y-50647166D01*
X127530802Y-50650000D01*
X126950000Y-50650000D01*
X126950000Y-51566988D01*
X126892993Y-51534075D01*
X126765826Y-51500000D01*
X126634174Y-51500000D01*
X126507007Y-51534075D01*
X126450000Y-51566988D01*
X126450000Y-50650000D01*
X125802155Y-50650000D01*
X125742627Y-50656401D01*
X125742620Y-50656403D01*
X125607913Y-50706645D01*
X125607906Y-50706649D01*
X125492812Y-50792809D01*
X125492809Y-50792812D01*
X125406649Y-50907906D01*
X125406645Y-50907913D01*
X125356403Y-51042620D01*
X125356401Y-51042627D01*
X125350000Y-51102155D01*
X125350000Y-51750000D01*
X126266988Y-51750000D01*
X126234075Y-51807007D01*
X126200000Y-51934174D01*
X126200000Y-52065826D01*
X126234075Y-52192993D01*
X126266988Y-52250000D01*
X125350000Y-52250000D01*
X125350000Y-52897844D01*
X125356401Y-52957372D01*
X125356403Y-52957379D01*
X125406645Y-53092086D01*
X125406649Y-53092093D01*
X125492809Y-53207187D01*
X125492812Y-53207190D01*
X125607906Y-53293350D01*
X125607913Y-53293354D01*
X125742620Y-53343596D01*
X125742627Y-53343598D01*
X125802155Y-53349999D01*
X125802172Y-53350000D01*
X126113059Y-53350000D01*
X126180098Y-53369685D01*
X126225853Y-53422489D01*
X126235797Y-53491647D01*
X126206772Y-53555203D01*
X126200740Y-53561681D01*
X126125313Y-53637107D01*
X126125310Y-53637111D01*
X126037709Y-53768214D01*
X126037702Y-53768227D01*
X125977364Y-53913898D01*
X125977361Y-53913908D01*
X125946461Y-54069250D01*
X125914076Y-54131161D01*
X125912525Y-54132739D01*
X125622084Y-54423181D01*
X125560761Y-54456666D01*
X125534403Y-54459500D01*
X120794436Y-54459500D01*
X120727397Y-54439815D01*
X120696061Y-54410988D01*
X120692230Y-54405995D01*
X120688659Y-54401341D01*
X120567135Y-54308092D01*
X120567134Y-54308091D01*
X120567132Y-54308090D01*
X120425620Y-54249475D01*
X120425618Y-54249474D01*
X120425617Y-54249474D01*
X120401486Y-54246297D01*
X120311887Y-54234500D01*
X120311880Y-54234500D01*
X119178120Y-54234500D01*
X119178112Y-54234500D01*
X119064383Y-54249474D01*
X119064379Y-54249475D01*
X118922867Y-54308090D01*
X118801341Y-54401341D01*
X118708090Y-54522867D01*
X118649475Y-54664379D01*
X118649474Y-54664383D01*
X118634500Y-54778112D01*
X118634500Y-54858203D01*
X118625855Y-54887643D01*
X118619332Y-54917630D01*
X118615577Y-54922645D01*
X118614815Y-54925242D01*
X118598181Y-54945884D01*
X118577181Y-54966884D01*
X118515858Y-55000369D01*
X118446166Y-54995385D01*
X118390233Y-54953513D01*
X118365816Y-54888049D01*
X118365500Y-54879203D01*
X118365500Y-54778126D01*
X118365499Y-54778112D01*
X118362948Y-54758735D01*
X118350526Y-54664383D01*
X118298460Y-54538683D01*
X118291909Y-54522867D01*
X118291908Y-54522866D01*
X118291908Y-54522865D01*
X118198659Y-54401341D01*
X118077135Y-54308092D01*
X118077134Y-54308091D01*
X118077132Y-54308090D01*
X117935620Y-54249475D01*
X117935618Y-54249474D01*
X117935617Y-54249474D01*
X117911486Y-54246297D01*
X117821887Y-54234500D01*
X117821880Y-54234500D01*
X116688120Y-54234500D01*
X116688112Y-54234500D01*
X116574383Y-54249474D01*
X116456073Y-54298478D01*
X116386604Y-54305945D01*
X116324125Y-54274670D01*
X116289545Y-54218510D01*
X116262031Y-54123804D01*
X116179721Y-53984625D01*
X116179714Y-53984616D01*
X116065383Y-53870285D01*
X116065374Y-53870278D01*
X115926195Y-53787968D01*
X115926190Y-53787966D01*
X115770918Y-53742855D01*
X115770912Y-53742854D01*
X115750000Y-53741209D01*
X115750000Y-54396000D01*
X115730315Y-54463039D01*
X115677511Y-54508794D01*
X115626000Y-54520000D01*
X115500000Y-54520000D01*
X115500000Y-54575500D01*
X115480315Y-54642539D01*
X115427511Y-54688294D01*
X115376000Y-54699500D01*
X115265302Y-54699500D01*
X115229008Y-54702356D01*
X115229002Y-54702357D01*
X115073610Y-54747503D01*
X115073605Y-54747506D01*
X115064766Y-54752732D01*
X115001648Y-54770000D01*
X114695496Y-54770000D01*
X114737968Y-54916194D01*
X114749911Y-54936389D01*
X114751722Y-54943527D01*
X114756489Y-54949143D01*
X114760198Y-54976939D01*
X114767092Y-55004113D01*
X114764984Y-55012806D01*
X114765731Y-55018399D01*
X114759209Y-55036632D01*
X114755445Y-55052161D01*
X114752928Y-55057527D01*
X114737506Y-55083605D01*
X114732308Y-55101492D01*
X114728201Y-55110252D01*
X114711207Y-55129466D01*
X114697405Y-55151079D01*
X114688446Y-55155201D01*
X114681913Y-55162589D01*
X114657232Y-55169565D01*
X114633933Y-55180287D01*
X114615934Y-55181600D01*
X108926270Y-55181600D01*
X108926254Y-55181599D01*
X108918658Y-55181599D01*
X108760543Y-55181599D01*
X108684179Y-55202061D01*
X108607814Y-55222523D01*
X108607809Y-55222526D01*
X108470890Y-55301575D01*
X108470886Y-55301578D01*
X108445192Y-55327272D01*
X108383868Y-55360756D01*
X108314177Y-55355770D01*
X108258244Y-55313898D01*
X108241330Y-55282921D01*
X108213355Y-55207915D01*
X108213350Y-55207906D01*
X108127190Y-55092812D01*
X108127187Y-55092809D01*
X108012093Y-55006649D01*
X108012086Y-55006645D01*
X107877379Y-54956403D01*
X107877372Y-54956401D01*
X107817844Y-54950000D01*
X107724924Y-54950000D01*
X107657885Y-54930315D01*
X107657531Y-54930000D01*
X106846988Y-54930000D01*
X106864205Y-54920060D01*
X106920060Y-54864205D01*
X106959556Y-54795796D01*
X106980000Y-54719496D01*
X106980000Y-54640504D01*
X106959556Y-54564204D01*
X106920060Y-54495795D01*
X106864205Y-54439940D01*
X106846988Y-54430000D01*
X107649862Y-54430000D01*
X107641570Y-54388310D01*
X107622536Y-54342358D01*
X107622535Y-54342356D01*
X107592565Y-54270000D01*
X114695496Y-54270000D01*
X115250000Y-54270000D01*
X115250000Y-53741210D01*
X115249999Y-53741209D01*
X115229087Y-53742854D01*
X115229081Y-53742855D01*
X115073809Y-53787966D01*
X115073804Y-53787968D01*
X114934625Y-53870278D01*
X114934616Y-53870285D01*
X114820285Y-53984616D01*
X114820278Y-53984625D01*
X114737968Y-54123804D01*
X114695496Y-54270000D01*
X107592565Y-54270000D01*
X107566192Y-54206328D01*
X107566185Y-54206315D01*
X107456751Y-54042537D01*
X107456748Y-54042533D01*
X107317466Y-53903251D01*
X107317462Y-53903248D01*
X107153684Y-53793814D01*
X107153671Y-53793807D01*
X106971693Y-53718430D01*
X106971681Y-53718427D01*
X106781961Y-53680689D01*
X106720050Y-53648304D01*
X106685476Y-53587588D01*
X106689215Y-53517819D01*
X106699414Y-53495960D01*
X106732869Y-53439393D01*
X106775297Y-53293354D01*
X106777664Y-53285208D01*
X106777665Y-53285202D01*
X106777671Y-53285122D01*
X106780500Y-53249181D01*
X106780499Y-52750820D01*
X106777665Y-52714796D01*
X106732869Y-52560607D01*
X106651135Y-52422402D01*
X106651133Y-52422400D01*
X106651130Y-52422396D01*
X106537603Y-52308869D01*
X106537595Y-52308863D01*
X106399393Y-52227131D01*
X106399388Y-52227129D01*
X106245208Y-52182335D01*
X106245202Y-52182334D01*
X106209181Y-52179500D01*
X105810830Y-52179500D01*
X105810808Y-52179501D01*
X105774794Y-52182335D01*
X105620611Y-52227129D01*
X105620607Y-52227130D01*
X105562628Y-52261419D01*
X105494903Y-52278600D01*
X105436388Y-52261419D01*
X105379189Y-52227592D01*
X105379188Y-52227591D01*
X105240001Y-52187153D01*
X105240000Y-52187154D01*
X105240000Y-52739591D01*
X105239999Y-52740067D01*
X105239981Y-52744704D01*
X105239500Y-52750819D01*
X105239500Y-52870117D01*
X105239499Y-52870378D01*
X105229591Y-52903646D01*
X105219815Y-52936941D01*
X105219594Y-52937214D01*
X105219557Y-52937341D01*
X105219347Y-52937521D01*
X105203181Y-52957583D01*
X105197083Y-52963681D01*
X105174720Y-52975891D01*
X105166578Y-52982893D01*
X105160287Y-52983772D01*
X105135760Y-52997166D01*
X105109402Y-53000000D01*
X104990000Y-53000000D01*
X104990000Y-53119402D01*
X104981355Y-53148842D01*
X104974832Y-53178829D01*
X104971077Y-53183844D01*
X104970315Y-53186441D01*
X104953681Y-53207083D01*
X104947083Y-53213681D01*
X104885760Y-53247166D01*
X104859402Y-53250000D01*
X104220069Y-53250000D01*
X104222832Y-53285122D01*
X104222833Y-53285128D01*
X104267592Y-53439188D01*
X104267593Y-53439191D01*
X104349261Y-53577285D01*
X104349268Y-53577294D01*
X104378687Y-53606713D01*
X104412172Y-53668036D01*
X104407188Y-53737728D01*
X104378688Y-53782075D01*
X104310421Y-53850343D01*
X104131286Y-54029478D01*
X104019481Y-54141282D01*
X104019479Y-54141285D01*
X103989179Y-54193767D01*
X103984527Y-54201825D01*
X103940423Y-54278215D01*
X103940092Y-54279448D01*
X103935515Y-54287445D01*
X103915784Y-54306396D01*
X103898619Y-54327698D01*
X103890952Y-54330249D01*
X103885125Y-54335847D01*
X103858281Y-54341123D01*
X103832325Y-54349762D01*
X103824496Y-54347763D01*
X103816568Y-54349322D01*
X103791133Y-54339247D01*
X103764626Y-54332482D01*
X103759120Y-54326568D01*
X103751608Y-54323593D01*
X103735656Y-54301366D01*
X103717016Y-54281345D01*
X103714918Y-54272470D01*
X103710870Y-54266829D01*
X103710116Y-54252148D01*
X103703900Y-54225841D01*
X103703900Y-53850345D01*
X103703900Y-53850343D01*
X103662977Y-53697616D01*
X103662973Y-53697609D01*
X103583924Y-53560690D01*
X103583918Y-53560682D01*
X103522019Y-53498783D01*
X103488534Y-53437460D01*
X103485700Y-53411102D01*
X103485700Y-52956597D01*
X103494344Y-52927156D01*
X103500868Y-52897170D01*
X103504622Y-52892154D01*
X103505385Y-52889558D01*
X103522019Y-52868916D01*
X103640935Y-52750000D01*
X104220069Y-52750000D01*
X104740000Y-52750000D01*
X104740000Y-52187154D01*
X104739998Y-52187153D01*
X104600811Y-52227591D01*
X104600808Y-52227593D01*
X104462714Y-52309261D01*
X104462705Y-52309268D01*
X104349268Y-52422705D01*
X104349261Y-52422714D01*
X104267593Y-52560808D01*
X104267592Y-52560811D01*
X104222833Y-52714871D01*
X104222832Y-52714877D01*
X104220069Y-52750000D01*
X103640935Y-52750000D01*
X104997222Y-51393713D01*
X108649500Y-51393713D01*
X108649500Y-51606287D01*
X108682754Y-51816243D01*
X108738819Y-51988794D01*
X108748444Y-52018414D01*
X108844951Y-52207820D01*
X108969890Y-52379786D01*
X109120213Y-52530109D01*
X109292179Y-52655048D01*
X109292181Y-52655049D01*
X109292184Y-52655051D01*
X109481588Y-52751557D01*
X109683757Y-52817246D01*
X109893713Y-52850500D01*
X109893714Y-52850500D01*
X110106286Y-52850500D01*
X110106287Y-52850500D01*
X110316243Y-52817246D01*
X110518412Y-52751557D01*
X110707816Y-52655051D01*
X110799012Y-52588794D01*
X110879786Y-52530109D01*
X110879788Y-52530106D01*
X110879792Y-52530104D01*
X111030104Y-52379792D01*
X111030106Y-52379788D01*
X111030109Y-52379786D01*
X111155048Y-52207820D01*
X111155047Y-52207820D01*
X111155051Y-52207816D01*
X111251557Y-52018412D01*
X111317246Y-51816243D01*
X111350500Y-51606287D01*
X111350500Y-51393713D01*
X111317246Y-51183757D01*
X111251557Y-50981588D01*
X111155051Y-50792184D01*
X111155049Y-50792181D01*
X111155048Y-50792179D01*
X111030109Y-50620213D01*
X110879786Y-50469890D01*
X110707820Y-50344951D01*
X110518414Y-50248444D01*
X110518413Y-50248443D01*
X110518412Y-50248443D01*
X110316243Y-50182754D01*
X110316241Y-50182753D01*
X110316240Y-50182753D01*
X110154957Y-50157208D01*
X110106287Y-50149500D01*
X109893713Y-50149500D01*
X109845042Y-50157208D01*
X109683760Y-50182753D01*
X109481585Y-50248444D01*
X109292179Y-50344951D01*
X109120213Y-50469890D01*
X108969890Y-50620213D01*
X108844951Y-50792179D01*
X108748444Y-50981585D01*
X108682753Y-51183760D01*
X108664159Y-51301160D01*
X108649500Y-51393713D01*
X104997222Y-51393713D01*
X105003324Y-51387611D01*
X106508917Y-49882019D01*
X106570240Y-49848534D01*
X106596598Y-49845700D01*
X128087103Y-49845700D01*
X128154142Y-49865385D01*
G37*
%TD.AperFunction*%
%TD*%
M02*
