M48
; DRILL file {KiCad 9.0.6} date 2026-03-23T19:36:07-0500
; FORMAT={-:-/ absolute / metric / decimal}
; #@! TF.CreationDate,2026-03-23T19:36:07-05:00
; #@! TF.GenerationSoftware,Kicad,Pcbnew,9.0.6
; #@! TF.FileFunction,Plated,1,2,PTH
FMAT,2
METRIC
; #@! TA.AperFunction,Plated,PTH,ViaDrill
T1C0.300
; #@! TA.AperFunction,Plated,PTH,ComponentDrill
T2C0.600
; #@! TA.AperFunction,Plated,PTH,ComponentDrill
T3C0.900
; #@! TA.AperFunction,Plated,PTH,ComponentDrill
T4C1.000
%
G90
G05
T1
X103.49Y-65.0
X104.99Y-53.0
X107.045Y-55.75
X112.5Y-63.0
X115.5Y-57.98
X123.0Y-57.0
X126.747Y-54.147
X129.5Y-59.5
X129.53Y-50.402
X130.337Y-55.019
X132.013Y-61.216
X133.093Y-63.697
X133.267Y-52.993
X135.725Y-65.16
X136.716Y-60.658
X137.235Y-62.616
X137.406Y-61.3
X140.0Y-65.0
X140.334Y-62.714
X141.0Y-57.0
X141.213Y-62.531
X141.913Y-54.707
X142.375Y-63.294
X142.434Y-54.1
X143.0Y-53.5
X143.7Y-57.7
X143.7Y-59.35
X143.7Y-61.0
X144.709Y-53.537
X145.35Y-57.7
X145.35Y-59.35
X145.35Y-61.0
X145.531Y-49.847
X145.903Y-53.285
X146.139Y-49.295
X146.517Y-51.25
X147.0Y-57.7
X147.0Y-59.35
X147.0Y-61.0
X148.688Y-53.763
X151.596Y-51.364
X153.304Y-60.284
X153.312Y-55.0
X156.48Y-63.78
T4
X126.7Y-52.0
X128.0Y-64.5
X129.24Y-52.0
X130.54Y-64.5
X131.78Y-52.0
X134.32Y-52.0
T2
X102.25Y-54.68G85X101.65Y-54.68
G05
X102.25Y-63.32G85X101.65Y-63.32
G05
X106.68Y-54.68G85X105.58Y-54.68
G05
X106.68Y-63.32G85X105.58Y-63.32
G05
T3
X160.8Y-53.3G85X162.4Y-53.3
G05
X160.8Y-64.7G85X162.4Y-64.7
G05
M30
