%TF.GenerationSoftware,KiCad,Pcbnew,9.0.6*%
%TF.CreationDate,2026-03-23T19:36:02-05:00*%
%TF.ProjectId,ducktape,6475636b-7461-4706-952e-6b696361645f,rev?*%
%TF.SameCoordinates,Original*%
%TF.FileFunction,Soldermask,Top*%
%TF.FilePolarity,Negative*%
%FSLAX46Y46*%
G04 Gerber Fmt 4.6, Leading zero omitted, Abs format (unit mm)*
G04 Created by KiCad (PCBNEW 9.0.6) date 2026-03-23 19:36:02*
%MOMM*%
%LPD*%
G01*
G04 APERTURE LIST*
G04 Aperture macros list*
%AMRoundRect*
0 Rectangle with rounded corners*
0 $1 Rounding radius*
0 $2 $3 $4 $5 $6 $7 $8 $9 X,Y pos of 4 corners*
0 Add a 4 corners polygon primitive as box body*
4,1,4,$2,$3,$4,$5,$6,$7,$8,$9,$2,$3,0*
0 Add four circle primitives for the rounded corners*
1,1,$1+$1,$2,$3*
1,1,$1+$1,$4,$5*
1,1,$1+$1,$6,$7*
1,1,$1+$1,$8,$9*
0 Add four rect primitives between the rounded corners*
20,1,$1+$1,$2,$3,$4,$5,0*
20,1,$1+$1,$4,$5,$6,$7,0*
20,1,$1+$1,$6,$7,$8,$9,0*
20,1,$1+$1,$8,$9,$2,$3,0*%
%AMOutline5P*
0 Free polygon, 5 corners , with rotation*
0 The origin of the aperture is its center*
0 number of corners: always 5*
0 $1 to $10 corner X, Y*
0 $11 Rotation angle, in degrees counterclockwise*
0 create outline with 5 corners*
4,1,5,$1,$2,$3,$4,$5,$6,$7,$8,$9,$10,$1,$2,$11*%
%AMOutline6P*
0 Free polygon, 6 corners , with rotation*
0 The origin of the aperture is its center*
0 number of corners: always 6*
0 $1 to $12 corner X, Y*
0 $13 Rotation angle, in degrees counterclockwise*
0 create outline with 6 corners*
4,1,6,$1,$2,$3,$4,$5,$6,$7,$8,$9,$10,$11,$12,$1,$2,$13*%
%AMOutline7P*
0 Free polygon, 7 corners , with rotation*
0 The origin of the aperture is its center*
0 number of corners: always 7*
0 $1 to $14 corner X, Y*
0 $15 Rotation angle, in degrees counterclockwise*
0 create outline with 7 corners*
4,1,7,$1,$2,$3,$4,$5,$6,$7,$8,$9,$10,$11,$12,$13,$14,$1,$2,$15*%
%AMOutline8P*
0 Free polygon, 8 corners , with rotation*
0 The origin of the aperture is its center*
0 number of corners: always 8*
0 $1 to $16 corner X, Y*
0 $17 Rotation angle, in degrees counterclockwise*
0 create outline with 8 corners*
4,1,8,$1,$2,$3,$4,$5,$6,$7,$8,$9,$10,$11,$12,$13,$14,$15,$16,$1,$2,$17*%
G04 Aperture macros list end*
%ADD10C,2.200000*%
%ADD11RoundRect,0.140000X0.170000X-0.140000X0.170000X0.140000X-0.170000X0.140000X-0.170000X-0.140000X0*%
%ADD12RoundRect,0.140000X0.140000X0.170000X-0.140000X0.170000X-0.140000X-0.170000X0.140000X-0.170000X0*%
%ADD13RoundRect,0.140000X-0.170000X0.140000X-0.170000X-0.140000X0.170000X-0.140000X0.170000X0.140000X0*%
%ADD14C,1.700000*%
%ADD15R,1.700000X1.700000*%
%ADD16O,3.500000X1.900000*%
%ADD17R,2.500000X1.100000*%
%ADD18C,1.100000*%
%ADD19O,1.600000X1.000000*%
%ADD20O,2.100000X1.000000*%
%ADD21R,1.450000X0.600000*%
%ADD22R,1.450000X0.300000*%
%ADD23C,0.650000*%
%ADD24RoundRect,0.135000X-0.185000X0.135000X-0.185000X-0.135000X0.185000X-0.135000X0.185000X0.135000X0*%
%ADD25RoundRect,0.196000X-0.711000X-0.196000X0.711000X-0.196000X0.711000X0.196000X-0.711000X0.196000X0*%
%ADD26RoundRect,0.106750X0.605250X0.320250X-0.605250X0.320250X-0.605250X-0.320250X0.605250X-0.320250X0*%
%ADD27R,0.800000X0.800000*%
%ADD28R,1.200000X1.200000*%
%ADD29Outline5P,-0.600000X0.204000X-0.204000X0.600000X0.600000X0.600000X0.600000X-0.600000X-0.600000X-0.600000X180.000000*%
%ADD30R,0.400000X0.800000*%
%ADD31R,0.800000X0.400000*%
%ADD32R,0.700000X0.700000*%
%ADD33RoundRect,0.102000X0.325000X-0.525000X0.325000X0.525000X-0.325000X0.525000X-0.325000X-0.525000X0*%
%ADD34RoundRect,0.140000X-0.140000X-0.170000X0.140000X-0.170000X0.140000X0.170000X-0.140000X0.170000X0*%
%ADD35RoundRect,0.135000X0.135000X0.185000X-0.135000X0.185000X-0.135000X-0.185000X0.135000X-0.185000X0*%
G04 APERTURE END LIST*
D10*
%TO.C,REF1*%
X110000000Y-66500000D03*
%TD*%
%TO.C,REF1*%
X110000000Y-51500000D03*
%TD*%
D11*
%TO.C,C1*%
X115500000Y-57020000D03*
X115500000Y-57980000D03*
%TD*%
D12*
%TO.C,C3*%
X155520000Y-66000000D03*
X156480000Y-66000000D03*
%TD*%
%TO.C,C4*%
X155520000Y-63780000D03*
X156480000Y-63780000D03*
%TD*%
D13*
%TO.C,C6*%
X125000000Y-59980000D03*
X125000000Y-59020000D03*
%TD*%
D14*
%TO.C,J1*%
X134320000Y-52000000D03*
X131780000Y-52000000D03*
X129240000Y-52000000D03*
D15*
X126700000Y-52000000D03*
%TD*%
D16*
%TO.C,J2*%
X161600000Y-64700000D03*
X161600000Y-53300000D03*
D17*
X158850000Y-62500000D03*
X158850000Y-60000000D03*
X158850000Y-58000000D03*
X158850000Y-55500000D03*
D18*
X161600000Y-61300000D03*
X161600000Y-56700000D03*
%TD*%
D19*
%TO.C,J3*%
X101950000Y-63320000D03*
D20*
X106130000Y-63320000D03*
D19*
X101950000Y-54680000D03*
D20*
X106130000Y-54680000D03*
D21*
X107045000Y-55750000D03*
X107045000Y-56550000D03*
D22*
X107045000Y-57250000D03*
X107045000Y-58250000D03*
X107045000Y-59750000D03*
X107045000Y-60750000D03*
D21*
X107045000Y-61450000D03*
X107045000Y-62250000D03*
X107045000Y-62250000D03*
X107045000Y-61450000D03*
D22*
X107045000Y-60250000D03*
X107045000Y-59250000D03*
X107045000Y-58750000D03*
X107045000Y-57750000D03*
D21*
X107045000Y-56550000D03*
X107045000Y-55750000D03*
D23*
X105600000Y-61890000D03*
X105600000Y-56110000D03*
%TD*%
D24*
%TO.C,R1*%
X135000000Y-64510000D03*
X135000000Y-63490000D03*
%TD*%
%TO.C,R2*%
X156000000Y-62510000D03*
X156000000Y-61490000D03*
%TD*%
D25*
%TO.C,U2*%
X134105000Y-56095000D03*
X134105000Y-57365000D03*
X134105000Y-58635000D03*
X134105000Y-59905000D03*
X126895000Y-59905000D03*
X126895000Y-58635000D03*
X126895000Y-57365000D03*
X126895000Y-56095000D03*
%TD*%
D26*
%TO.C,U3*%
X117255000Y-56940000D03*
X117255000Y-55060000D03*
X119745000Y-55060000D03*
X119745000Y-56000000D03*
X119745000Y-56940000D03*
%TD*%
D27*
%TO.C,U4*%
X138350000Y-66350000D03*
X138350000Y-52350000D03*
X152350000Y-52350000D03*
X152350000Y-66350000D03*
D28*
X143700000Y-57700000D03*
X143700000Y-59350000D03*
X143700000Y-61000000D03*
X145350000Y-57700000D03*
X145350000Y-59350000D03*
X145350000Y-61000000D03*
X147000000Y-57700000D03*
X147000000Y-59350000D03*
D29*
X147000000Y-61000000D03*
D30*
X151300000Y-66350000D03*
X150450000Y-66350000D03*
X149600000Y-66350000D03*
X148750000Y-66350000D03*
X147900000Y-66350000D03*
X147050000Y-66350000D03*
X146200000Y-66350000D03*
X145350000Y-66350000D03*
X144500000Y-66350000D03*
X143650000Y-66350000D03*
X142800000Y-66350000D03*
X141950000Y-66350000D03*
X141100000Y-66350000D03*
X140250000Y-66350000D03*
X139400000Y-66350000D03*
D31*
X138350000Y-65300000D03*
X138350000Y-64450000D03*
X138350000Y-63600000D03*
X138350000Y-62750000D03*
X138350000Y-61900000D03*
X138350000Y-61050000D03*
X138350000Y-60200000D03*
X138350000Y-59350000D03*
X138350000Y-58500000D03*
X138350000Y-57650000D03*
X138350000Y-56800000D03*
X138350000Y-55950000D03*
X138350000Y-55100000D03*
X138350000Y-54250000D03*
X138350000Y-53400000D03*
D30*
X139400000Y-52350000D03*
X140250000Y-52350000D03*
X141100000Y-52350000D03*
X141950000Y-52350000D03*
X142800000Y-52350000D03*
X143650000Y-52350000D03*
X144500000Y-52350000D03*
X145350000Y-52350000D03*
X146200000Y-52350000D03*
X147050000Y-52350000D03*
X147900000Y-52350000D03*
X148750000Y-52350000D03*
X149600000Y-52350000D03*
X150450000Y-52350000D03*
X151300000Y-52350000D03*
D31*
X152350000Y-53400000D03*
X152350000Y-54250000D03*
X152350000Y-55100000D03*
X152350000Y-55950000D03*
X152350000Y-56800000D03*
X152350000Y-57650000D03*
X152350000Y-58500000D03*
X152350000Y-59350000D03*
X152350000Y-60200000D03*
X152350000Y-61050000D03*
X152350000Y-61900000D03*
X152350000Y-62750000D03*
X152350000Y-63600000D03*
X152350000Y-64450000D03*
X152350000Y-65300000D03*
%TD*%
D32*
%TO.C,D1*%
X109085000Y-61950000D03*
X109085000Y-63050000D03*
X110915000Y-63050000D03*
X110915000Y-61950000D03*
%TD*%
D33*
%TO.C,S2*%
X120675000Y-65575000D03*
X120675000Y-61425000D03*
X122825000Y-65575000D03*
X122825000Y-61425000D03*
%TD*%
D13*
%TO.C,C8*%
X136500000Y-63520000D03*
X136500000Y-64480000D03*
%TD*%
%TO.C,C2*%
X115500000Y-54520000D03*
X115500000Y-55480000D03*
%TD*%
D33*
%TO.C,S1*%
X115925000Y-65575000D03*
X115925000Y-61425000D03*
X118075000Y-65575000D03*
X118075000Y-61425000D03*
%TD*%
D34*
%TO.C,C7*%
X112020000Y-61500000D03*
X112980000Y-61500000D03*
%TD*%
D15*
%TO.C,J4*%
X128000000Y-64500000D03*
D14*
X130540000Y-64500000D03*
%TD*%
D35*
%TO.C,R3*%
X106010000Y-53000000D03*
X104990000Y-53000000D03*
%TD*%
%TO.C,R5*%
X114010000Y-64000000D03*
X112990000Y-64000000D03*
%TD*%
%TO.C,R4*%
X104510000Y-65000000D03*
X103490000Y-65000000D03*
%TD*%
M02*
